<svg version="1.1" xmlns="http://www.w3.org/2000/svg" viewBox="0 0 543.4959718923488 264.5311709720554" width="543.4959718923488" height="264.5311709720554">
  <!-- svg-source:excalidraw -->
  
  <defs>
    <style>
      @font-face {
        font-family: "Virgil";
        src: url("https://excalidraw.com/Virgil.woff2");
      }
      @font-face {
        font-family: "Cascadia";
        src: url("https://excalidraw.com/Cascadia.woff2");
      }
    </style>
  </defs>
  <rect x="0" y="0" width="543.4959718923488" height="264.5311709720554" fill="#ffffff"></rect><g stroke-linecap="round" transform="translate(192.40127176507656 43.87002293109981) rotate(0 40.5 16.5)"><path d="M0 0 C0 0, 0 0, 0 0 M0 0 C0 0, 0 0, 0 0 M-0.14 6.35 C1.94 4.26, 3.48 2.82, 4.22 -0.17 M-0.13 6.76 C1.07 5.34, 1.94 3.8, 4.75 0.63 M0 10.93 C2.09 9.1, 3.84 6.38, 11.52 0.77 M-0.19 11.56 C2.55 9.6, 4.31 6.39, 10.38 -0.58 M-0.8 18.86 C1.52 14.74, 5.87 12.29, 15.77 -0.75 M-0.29 18.07 C5.62 11.2, 11.19 5.1, 15.61 -0.59 M-0.01 26.07 C6.96 17.14, 9.85 9.43, 23.11 0.03 M0.46 24.3 C7.88 14.2, 15.66 5.83, 21.15 0.23 M-1.27 30.94 C6.98 23.65, 10.32 15.03, 25.72 1.08 M-0.51 30.48 C9.43 20.03, 17.8 9.39, 26.92 0.78 M3.32 35.16 C12.78 20.58, 23.51 6.88, 31.64 0.84 M1.45 34.15 C10.17 25.29, 19.28 15.39, 32.85 -0.32 M7.5 35.9 C14.77 26.73, 18.57 18.96, 38.67 -0.38 M7.15 34.67 C15.58 24.73, 23.65 16.05, 37.06 0.63 M11.81 35.72 C23.14 20.43, 37.49 8.21, 42.43 0.65 M13.17 35.53 C24.7 21.67, 35.12 7.7, 42.73 -0.21 M18.92 35.31 C26.75 24.21, 32.8 16.09, 46.06 -0.71 M17.93 33.41 C28.79 21.22, 40.17 8.99, 48.4 -0.73 M23.98 34.49 C28.56 28.06, 37.13 18.5, 52.26 0.06 M22.7 35.45 C32.57 22.42, 43.61 11.14, 52.76 0.54 M26.08 34.01 C38.7 22.36, 46.38 11.43, 57 1.85 M27.74 35.36 C38.71 22.32, 49.93 8.72, 58.99 -0.14 M33.19 32.96 C39.43 26.33, 45.21 18.98, 65.59 -1.04 M33.94 35.18 C44.49 21.92, 54.94 9.54, 63.55 -0.25 M39.02 34.15 C46.14 24.75, 54.03 18.83, 70.32 -1.68 M38.38 34.95 C46.1 27.34, 53.14 19.22, 68.51 0.4 M42.51 33.93 C50.44 24.67, 58.75 17.98, 74.58 0.54 M44.48 34.86 C51.42 25.23, 59.1 17.36, 74.37 -0.9 M49.48 35.41 C58.79 22.11, 72.24 9.15, 78.5 1.07 M48.34 34.73 C58.07 25.41, 65.73 16.99, 80.33 -0.27 M56.69 33.5 C61.52 28.35, 67.47 19.98, 81.1 1.59 M55.53 35.44 C62.23 26.11, 67.07 19.39, 83.19 2.37 M61.55 36.08 C70.17 23.16, 77.57 14.24, 85.18 7.33 M59.43 34.35 C68.57 23.39, 78.15 12.96, 82.89 7.08 M66.17 33.1 C72.72 28.83, 76.91 19.05, 82.13 15.48 M65.99 34.74 C70.54 29.64, 74.62 24.48, 84.03 14.46 M70.99 33.79 C75.68 29.08, 80.52 24.15, 84.14 21.74 M70.12 35.26 C74.02 29.51, 78.66 26.19, 82.83 20.7 M75.54 34.98 C79.65 30.81, 81.76 26.87, 82.27 25.78 M76.27 33.85 C78.39 32.19, 80.85 29.63, 82.97 26.45" stroke="#40c057" stroke-width="0.5" fill="none"></path><path d="M1.42 -1.36 C22.57 1.01, 44.41 1.32, 79.25 -0.78 M0.29 0.71 C21.52 0.38, 43.08 0.03, 80.16 -0.26 M80.18 -0.99 C80.42 5.9, 82.69 13.23, 80.12 34.1 M81.92 -0.06 C80.99 13.38, 81.48 25.84, 80.89 32.27 M79.46 33.52 C66.51 34.33, 48.58 33.36, 1.18 32.55 M80.1 32.13 C58.73 32.35, 34.69 33.42, -0.01 32.58 M-0.32 33.43 C1.67 22.59, -1.9 9.27, 1.19 -1.78 M-0.91 32.26 C-0.05 26.54, -0.68 18.48, -0.16 0.67" stroke="#000000" stroke-width="1" fill="none"></path></g><g transform="translate(197.40127176507656 51.37002293109981) rotate(0 35.5 9)"><text x="35.5" y="14" font-family="Helvetica, Segoe UI Emoji" font-size="16px" fill="#000000" text-anchor="middle" style="white-space: pre;" direction="ltr">root-link</text></g><g stroke-linecap="round" transform="translate(32.0692749273918 143.2271658591244) rotate(0 40.5 14)"><path d="M0 0 C0 0, 0 0, 0 0 M0 0 C0 0, 0 0, 0 0 M0.42 5.62 C1.53 3.76, 3.01 2.37, 5.43 0.7 M-0.02 6.14 C1.87 3.9, 3.91 2.11, 4.82 0.11 M1.72 11.03 C2.16 7.34, 7.45 6.15, 9.19 -0.2 M0.76 11.87 C4.22 8.74, 7.28 3.98, 10.62 0.74 M1.75 16.46 C4.65 13.99, 8.11 9.12, 17.14 0.75 M-1.09 19 C5.96 11.53, 11.23 4.7, 16.2 -0.13 M-0.64 22.6 C6.82 19.62, 9.14 10.11, 20.14 0.74 M-0.37 24.21 C6.05 17.2, 11.66 10.19, 21.81 -0.45 M3 27.02 C9.17 17.45, 19.47 7.43, 25.67 -0.56 M2.14 28.09 C10.09 18.9, 18.69 9.71, 26.91 -0.35 M5.37 27.88 C12.62 22.23, 19.78 13.8, 32.53 -1.3 M6.37 29.14 C14.28 18.39, 24.15 9.95, 31.66 0 M12.93 28.07 C17.29 23.66, 26.13 14.49, 36.27 1.54 M11.77 28.63 C19.39 20.91, 25.27 13.36, 36.19 0.12 M17.47 30.37 C23.72 19.1, 35.51 10.48, 41.38 -0.87 M16.33 30.19 C24.2 19.2, 33.46 11.06, 42.32 0.7 M23.72 29.69 C29.8 20.65, 33.14 16.24, 47.08 1.8 M21.75 28.63 C30.37 19.38, 39.75 10.18, 46.81 1.1 M27.17 28.12 C34.19 22.56, 40.3 14.9, 51.55 -1.96 M26.67 29.44 C33.56 21.09, 39.95 14.01, 53.14 -1.16 M34.24 29.88 C40.15 20.53, 48.36 14.67, 57.7 1.49 M32.44 28.26 C40.56 20.02, 46.39 13.95, 58.76 1.13 M40.09 28.39 C47.01 16.28, 55.33 7.03, 65.41 -2.06 M38.38 28.45 C46.28 19.51, 52.72 12.54, 64.78 0.34 M44.85 29.16 C54.2 17.52, 63.15 6.32, 69.26 0.35 M43.49 28.48 C53.64 17.99, 63.46 6.26, 69.3 -0.47 M47.36 28.93 C57.85 20.33, 64.03 13.08, 74.82 -0.16 M49.74 29.53 C55.99 22.58, 60.33 14.58, 75.1 -0.09 M53.42 30.53 C64.23 17.9, 72.45 7.66, 80.37 0.66 M53.78 28.95 C59.29 22.82, 65.1 17.84, 78.93 0.36 M57.58 30 C69.35 18.69, 79.75 8.73, 83.19 1.5 M60.23 29.75 C68.05 20.29, 76.48 8.83, 83.26 1.22 M63.32 27.5 C70.4 21.35, 77.04 13.66, 84.58 6.71 M65.42 28.11 C70.53 21.39, 77.38 14.6, 82.84 7.98 M68.87 30.37 C71.61 23.93, 76.66 20.31, 82.81 12.5 M70.61 28.91 C72.92 26.02, 75.45 22.63, 83.09 14.02 M75.56 28.37 C76.77 26.14, 79.15 23.82, 82.15 19.92 M75.77 28.96 C77.46 26.2, 80.38 23.93, 82.44 20.01" stroke="#40c057" stroke-width="0.5" fill="none"></path><path d="M0.22 -0.21 C18.69 -1.57, 35.4 -0.64, 80.51 0.94 M-0.54 -0.55 C17.73 -0.72, 33.24 -1.42, 80.8 0.82 M81.24 -1.28 C82.61 7.25, 82.71 16.9, 82.66 26.62 M81.44 -0.04 C80.79 9.63, 81.51 20, 80.02 27.44 M82.42 27.38 C49.1 29.17, 17.6 29.82, -1.87 27.11 M81.21 28.63 C56.22 28.39, 33.76 28.47, 0.62 27.12 M-1.23 27.62 C0.8 20.67, 0.65 12.05, -0.99 -1.33 M0.85 27.55 C1.12 20.18, 0.59 10.59, -0.61 0.52" stroke="#000000" stroke-width="1" fill="none"></path></g><g transform="translate(37.0692749273918 148.2271658591244) rotate(0 35.5 9)"><text x="35.5" y="14" font-family="Helvetica, Segoe UI Emoji" font-size="16px" fill="#000000" text-anchor="middle" style="white-space: pre;" direction="ltr">sub-link-1</text></g><g stroke-linecap="round" transform="translate(198.52281179246506 141.7397046285082) rotate(0 40.5 14)"><path d="M0 0 C0 0, 0 0, 0 0 M0 0 C0 0, 0 0, 0 0 M-0.99 7.1 C0.59 4.65, 2.78 3.7, 4.34 0.57 M0.13 6.47 C1.41 4.13, 3.57 2.48, 5.28 0.12 M0.8 13.27 C3.97 8.73, 7.46 3.14, 9.96 0.88 M-0.44 12.49 C3.45 8.65, 7.43 4.25, 10.99 -0.7 M1.45 19.17 C2.82 15.24, 7.03 8.18, 14.74 -0.07 M0.44 17.85 C2.82 13.16, 7.07 10.2, 15.68 -0.57 M-1.45 24.45 C7.05 14.53, 13.12 9.57, 19.78 0.96 M1.17 24.63 C7.38 16.34, 14.71 7.27, 21.45 -0.83 M0.27 30.81 C8.39 24.2, 14.57 15.74, 27.03 2.19 M0.38 28.88 C8.66 20.88, 14.28 15.22, 25.91 0.48 M5.07 31.17 C13.8 24.14, 19.25 16.62, 33.39 0.91 M6.3 29.3 C14.55 20.11, 23.24 10.96, 32.84 -0.45 M13 28.38 C19.52 20, 24.68 11.98, 38.28 -1.21 M12.24 29.24 C19.07 20.8, 25.43 12.51, 36.6 1.17 M15.23 28.36 C26.57 19.65, 35.19 9.89, 41.9 -1.18 M16.68 29.36 C27.24 18.22, 35.67 6.61, 42.81 -0.83 M23.71 30.33 C29.55 20.38, 40.16 8.93, 48.99 -1.65 M23.37 29.38 C31.11 18.8, 40.24 8.91, 46.67 1 M26.94 27.9 C37.17 16.94, 46.43 8.48, 55.06 -1.95 M27.64 28.61 C34.27 21.88, 40.24 15.02, 53.66 0.15 M32.17 30.01 C38.11 22.81, 44.47 16.79, 58.16 -1.02 M33.09 28.43 C42.31 17.86, 50.82 9.05, 57.82 0.72 M37.21 29.93 C45.09 20.95, 51.74 14.16, 65.13 -0.51 M37.88 28.81 C44.53 20.97, 52.21 14.14, 64.46 -0.14 M44.63 30.29 C50.76 17.46, 62.88 8.86, 67.31 0.3 M43.46 28.77 C48.88 23.54, 54.08 16.28, 68.47 0.34 M49.55 28.06 C56.77 17.84, 67.83 9.79, 74.86 1.48 M48.83 28.94 C54.17 22.15, 58.82 16.61, 75.01 -1.05 M53.85 27.54 C61.73 20.59, 67.23 17.3, 80.44 -0.57 M55.29 28.02 C61.8 20.77, 68.82 12.32, 79.8 1.11 M57.96 29.4 C65.57 19.2, 72.36 11.82, 83.55 2.17 M58.67 29.27 C65.91 21.78, 72.75 13.95, 83.9 1.54 M67.09 27.62 C72.5 19.91, 79.99 11.43, 81.5 6.54 M64.12 29.06 C70.01 24.26, 75.19 17.94, 83.2 7.08 M70.96 30.57 C75.72 22.98, 80.16 19.13, 84.39 14.47 M70.33 29.31 C75.01 25.12, 79.41 18.49, 83.88 14.33 M74.83 29.38 C77.88 25.69, 79.09 23.97, 82.13 19.9 M76.03 28.34 C77.75 27.2, 78.48 25.54, 83.14 20.05" stroke="#40c057" stroke-width="0.5" fill="none"></path><path d="M0.13 0.11 C22.57 1.18, 43.63 1, 80.84 1.88 M0.68 -0.62 C17.04 0.38, 33.34 -0.26, 81.99 -0.96 M79.76 0.23 C82.18 9.08, 80.18 20.49, 81.24 27.09 M80.04 -0.73 C80.61 6.74, 80.92 12.36, 80.88 27.36 M80.52 26.77 C56.73 27.04, 31.9 26.73, -1.17 29.68 M80.48 28.1 C64.32 27.28, 48.61 26.75, -0.47 28.82 M0.49 28.04 C1.3 20.8, -0.13 16.5, -0.9 -0.93 M-0.76 28.84 C0.49 21.04, 0.59 15.77, 0.23 0.07" stroke="#000000" stroke-width="1" fill="none"></path></g><g transform="translate(203.52281179246506 146.7397046285082) rotate(0 35.5 9)"><text x="35.5" y="14" font-family="Helvetica, Segoe UI Emoji" font-size="16px" fill="#000000" text-anchor="middle" style="white-space: pre;" direction="ltr">sub-link-2</text></g><g stroke-linecap="round" transform="translate(353.2746484534182 141.27801440394524) rotate(0 40.5 14)"><path d="M0 0 C0 0, 0 0, 0 0 M0 0 C0 0, 0 0, 0 0 M-0.85 6.81 C1.22 5.29, 1.55 4.68, 5.43 0.19 M-0.18 6.09 C1.43 4.39, 3.22 1.78, 5.35 0.61 M0.76 13.56 C3.51 6.74, 6.8 1.01, 10.48 1.27 M-0.14 12.19 C1.69 9.96, 3.72 6.46, 11.37 0.76 M1.38 19.45 C5.63 12.7, 10.9 5.55, 15.55 0.82 M0.82 18.1 C4.25 13.07, 9.91 7.69, 15.34 0.85 M1.67 22.61 C5.05 20.1, 9.9 13.34, 21.87 0.34 M-0.01 24.99 C7.13 17.73, 13.59 8.55, 20.79 0.62 M0.7 27.92 C10.7 20.43, 16.51 10.34, 26.38 1.26 M1.61 28.28 C9.9 19.37, 17.8 10.76, 26.96 -0.18 M7.79 27.45 C15.19 20.44, 22.97 12.06, 32.85 0.01 M5.47 30.1 C13.76 21.18, 21.09 12.86, 31.21 0.09 M13.86 27.16 C16.19 21.9, 22.6 16.2, 35.58 1.37 M12.46 29.26 C17.5 20.74, 24.52 13.93, 37.45 -0.37 M16.96 28.09 C26.86 17.44, 32.96 9.18, 41.65 -0.53 M16.61 29.83 C22.65 22.48, 28.88 15.44, 42.87 -0.25 M23.92 28.59 C29.49 18.68, 36.98 10.94, 46.66 -1.23 M23.26 28.97 C29.29 20.65, 35.38 14.6, 48.23 -0.7 M26.11 29.41 C31.25 21.44, 38.79 15.33, 53.02 -0.92 M27.26 29.44 C37.67 17.55, 46.13 7.85, 52.58 -0.77 M33.66 30.59 C37.02 22.42, 46.19 15.25, 57.64 0.57 M33.8 28.06 C37.95 23.65, 44.36 16.39, 57.51 1.07 M39.24 28.54 C43.17 21.87, 48.93 17.4, 62.22 0.72 M38.6 30.21 C44.92 21.88, 51.56 12.69, 63.9 -0.59 M44.31 29.01 C48.92 24.46, 52.31 15.9, 69 -0.61 M44.66 28.39 C53.34 18.36, 60.76 9.71, 68.2 0.44 M46.86 28.1 C54.07 21.6, 60.15 13.3, 75 -0.25 M48.56 28.64 C59.27 17.71, 68.32 6.07, 75.13 0.42 M55.65 29.24 C60.62 20.53, 67.62 15.62, 79.77 1.35 M55.14 29.09 C64.01 18.51, 74.74 5.67, 79.99 0.18 M57.98 28.2 C64.09 20.64, 71.37 16.39, 81.67 3.31 M59.82 28.47 C68.41 19.78, 77.31 9.18, 83.37 1.9 M65.92 30.12 C71.67 22.76, 75.61 19.14, 84.89 9.61 M65.3 28.56 C68.47 24.71, 72.11 20.29, 82.76 7.83 M68.1 30.47 C74.39 23.3, 78.42 20.49, 82.41 13.3 M69.82 28.72 C73.08 24.79, 77.46 22.22, 83.87 14.03 M75.82 28.35 C77.63 26.84, 79.71 23.27, 82.61 19.65 M75.84 28.55 C78.44 25.44, 80.89 22.24, 83.33 20.4" stroke="#40c057" stroke-width="0.5" fill="none"></path><path d="M-0.9 -0.93 C17.67 -1.31, 39.69 -1.67, 82.68 0.64 M0.23 0.07 C19.26 -1.05, 38.09 0.05, 81.85 -0.23 M79.69 0.98 C80.01 7.61, 82.74 18.79, 80.99 27.4 M81.91 -0.18 C80.64 10.46, 81.27 19.48, 81.88 27.31 M79.39 28.53 C58.85 27.16, 33.85 30.53, 0.36 26.86 M81.72 27.4 C60.57 27.99, 37.86 29.08, 0.77 27.8 M-0.83 29.14 C0.95 18.52, -1.25 5.08, 1.12 -0.43 M0.45 27.17 C-0.36 17.05, -0.01 7.57, 0.36 -0.7" stroke="#000000" stroke-width="1" fill="none"></path></g><g transform="translate(358.2746484534182 146.27801440394524) rotate(0 35.5 9)"><text x="35.5" y="14" font-family="Helvetica, Segoe UI Emoji" font-size="16px" fill="#000000" text-anchor="middle" style="white-space: pre;" direction="ltr">sub-link-3</text></g><g stroke-linecap="round"><g transform="translate(176.9178327108599 79.39876736435326) rotate(0 -33.52720707931101 25.457295171134774)"><path d="M-0.26 0.09 C-11.61 8.79, -57.47 43.22, -68.87 51.82 M1.81 -0.9 C-9.09 7.47, -54.64 41.62, -66.56 50.05" stroke="#000000" stroke-width="1" fill="none"></path></g><g transform="translate(176.9178327108599 79.39876736435326) rotate(0 -33.52720707931101 25.457295171134774)"><path d="M-49.71 23.83 C-52.77 30.07, -56.92 36.21, -65.54 50.69 M-50.38 25.69 C-54.66 31.33, -58.33 37.55, -66.55 49.44" stroke="#000000" stroke-width="1" fill="none"></path></g><g transform="translate(176.9178327108599 79.39876736435326) rotate(0 -33.52720707931101 25.457295171134774)"><path d="M-37.59 40.39 C-43.48 42.69, -50.5 44.89, -65.54 50.69 M-38.27 42.26 C-45.23 44.01, -51.74 46.33, -66.55 49.44" stroke="#000000" stroke-width="1" fill="none"></path></g></g><g stroke-linecap="round"><g transform="translate(235.1244340685065 84.74948188743383) rotate(0 1.2408166646200414 26.398307502261332)"><path d="M-0.37 -0.37 C0.17 8.66, 2.33 44.21, 2.85 53.33 M1.63 -1.61 C2 7.63, 1.62 44.86, 1.64 54.41" stroke="#000000" stroke-width="1" fill="none"></path></g><g transform="translate(235.1244340685065 84.74948188743383) rotate(0 1.2408166646200414 26.398307502261332)"><path d="M-8.16 28.02 C-6.72 34.8, -2.61 43.73, 3 54.55 M-7.14 29.59 C-5.53 36.83, -0.6 46.18, 0.91 54.49" stroke="#000000" stroke-width="1" fill="none"></path></g><g transform="translate(235.1244340685065 84.74948188743383) rotate(0 1.2408166646200414 26.398307502261332)"><path d="M10.41 28.09 C6.88 34.8, 6.03 43.71, 3 54.55 M11.43 29.66 C6.68 36.92, 5.26 46.24, 0.91 54.49" stroke="#000000" stroke-width="1" fill="none"></path></g></g><g stroke-linecap="round"><g transform="translate(295.9565432777358 85.27081690953764) rotate(0 39.071957649891154 21.754625601257658)"><path d="M-0.7 0.43 C11.95 7.74, 63.64 35.47, 76.49 42.73 M1.13 -0.38 C14.12 7.15, 65.89 36.83, 78.85 43.89" stroke="#000000" stroke-width="1" fill="none"></path></g><g transform="translate(295.9565432777358 85.27081690953764) rotate(0 39.071957649891154 21.754625601257658)"><path d="M49.97 37.9 C58.28 39.61, 70.73 43.47, 79.3 45.61 M49.25 38.79 C55.48 38.97, 60.95 40.41, 79.44 43.08" stroke="#000000" stroke-width="1" fill="none"></path></g><g transform="translate(295.9565432777358 85.27081690953764) rotate(0 39.071957649891154 21.754625601257658)"><path d="M60.01 20.01 C64.67 27.87, 73.64 37.94, 79.3 45.61 M59.3 20.89 C63.52 24.79, 66.94 29.88, 79.44 43.08" stroke="#000000" stroke-width="1" fill="none"></path></g></g><g transform="translate(477.0898599045139 53.967848995708664) rotate(0 26.5 9)"><text x="0" y="14" font-family="Helvetica, Segoe UI Emoji" font-size="16px" fill="#000000" text-anchor="start" style="white-space: pre;" direction="ltr">Level 0</text></g><g transform="translate(480.49597189234885 140.71669039504377) rotate(0 26.5 9)"><text x="0" y="14" font-family="Helvetica, Segoe UI Emoji" font-size="16px" fill="#000000" text-anchor="start" style="white-space: pre;" direction="ltr">Level 1</text></g><g stroke-linecap="round" transform="translate(10 134.33684653618684) rotate(0 60.20012471138847 36.1937618096938)"><path d="M0 0 C0 0, 0 0, 0 0 M0 0 C0 0, 0 0, 0 0 M0.3 6.36 C1.87 3.88, 2.13 2.33, 5.35 -0.36 M-0.33 6.74 C1.55 4.55, 2.88 2.75, 5.2 0.54 M0.72 13.33 C3.86 8.8, 7.84 3.78, 10.76 -1.47 M0.45 12.72 C3.25 8.77, 6.85 4.34, 11.28 -0.82 M1.42 18.12 C2.94 12.19, 10.72 7.43, 14.01 1.17 M-0.25 17.44 C3.05 15.33, 7.86 10.35, 15.28 0.17 M1.71 22.99 C6.51 12.62, 14.76 6.48, 20.54 -1.78 M-0.42 23.79 C3.72 18.28, 7.95 14.87, 20.61 -0.71 M0.36 29.68 C6.04 24.28, 11.63 16.32, 26.12 -0.85 M0.86 30 C8.71 20.51, 19.65 8.83, 25.95 -0.04 M-0.69 37.53 C6.28 31.45, 15.18 23.27, 33.42 -0.07 M-0.05 37.55 C7.44 27.74, 16.45 19.22, 32.54 -0.06 M0.84 43.01 C11.25 27.46, 23.29 15.17, 37.86 1.73 M-0.71 43.1 C10.2 31.35, 20.59 19.78, 37.55 0.7 M0.61 47.02 C13.11 31.5, 27.22 17.67, 43.8 1.82 M-0.05 48.23 C15.46 30.02, 31.12 12.21, 41.87 -1.13 M-0.77 54.6 C12.02 41.58, 25.18 23.34, 46.35 0.68 M0.67 53.68 C10.96 41.31, 21.97 29.91, 47.34 -0.27 M0.06 61.97 C15.83 45.19, 32.06 28.13, 51.55 0.9 M-0.83 60.89 C20.4 35.97, 41.01 13.37, 52.49 0.75 M0.74 68.23 C12.95 51.82, 27.72 35.37, 58.2 -1.74 M-0.79 68.18 C22.66 41.09, 45.63 14.21, 57.81 1.09 M-1.73 74.65 C18.65 51.61, 35.69 30.53, 62.04 0.67 M1.13 72.58 C24.39 44.25, 47.88 17.47, 63.5 -0.96 M3.95 73.1 C27.99 48.47, 50.39 19.21, 69.53 -0.78 M6.28 72.74 C28.95 44.59, 52.52 16.66, 68.72 -0.41 M11.88 71.72 C30.6 50.88, 51.19 25.58, 74.12 -0.86 M11.08 73.05 C29.52 51.02, 50.42 27.18, 75.31 -0.1 M15.75 71.48 C28.07 56.91, 41.64 42.15, 77.96 -1.17 M17.26 72.79 C33.73 52.63, 50.46 33.54, 79.08 0.79 M21.98 74.53 C38.66 52.17, 53.61 35.02, 84.18 0.82 M20.51 72.92 C46.41 43.66, 71.89 16.37, 85.53 0.27 M25.94 71.17 C48.84 47.88, 73.17 21.47, 90.61 -1.16 M26.21 71.55 C42.77 53.86, 59.56 35.34, 89.13 1.01 M33.71 74.84 C51.96 48.85, 73.87 24.38, 94.07 0.72 M32.69 73.5 C52.45 48.36, 74.85 24.92, 95.04 -0.16 M38.36 73.16 C54.96 49.22, 76.87 30.79, 100.08 -0.5 M37 71.72 C59.11 48.13, 81.44 22.86, 100.38 -0.71 M41.68 70.9 C58.77 55.86, 75.8 35.55, 107.16 0.34 M42.12 72.85 C62.54 48.84, 83.58 23.43, 105.98 -0.96 M46.4 72.97 C62.82 56.28, 73.98 42.67, 112.51 -0.42 M48.75 72.71 C66 51.31, 83.5 32.52, 111.59 -0.55 M54 71.46 C73.08 49.11, 90.19 29.15, 115.67 0.45 M52.55 73.79 C68.53 56.88, 82.49 40.5, 117.06 -0.2 M60.91 72.61 C73.25 58.43, 85.33 41.32, 122.85 1.09 M59.86 72.72 C73.92 55.11, 90.1 36.34, 122.11 0.8 M64.3 71.8 C79.17 53.89, 94.94 39.05, 121.37 8.83 M62.99 71.86 C84.14 49.96, 106.3 25.76, 120.32 7.35 M70.27 72.58 C90.06 49.98, 110.35 25.58, 123.03 14.34 M69.94 72.69 C86.53 52.71, 104.03 34.18, 122 13.21 M75.68 73.66 C85.57 58.45, 98.32 44.62, 120.78 17.75 M73.69 73.38 C90.5 55.47, 105.91 36.43, 120.3 19.61 M80.34 71.89 C93.29 59.59, 100.95 47.25, 121.51 26.29 M79.88 72.28 C90.14 61.83, 100.37 50.65, 121.6 25.43 M84.78 73.3 C96.65 61.17, 106.92 49.75, 119.86 29.42 M86.15 73.41 C93.16 62.58, 101.78 53.43, 120.72 30.74 M89.83 72.81 C103.39 60.19, 113.81 43.42, 121.76 38.44 M91.15 72.7 C97.11 66.45, 102.94 58.55, 120.02 37.01 M97.69 73.48 C106.17 62.51, 115.8 50.04, 121.48 41.85 M95.13 71.75 C105.13 61.04, 116.38 49.3, 121.96 42.91 M100.92 73.82 C107.66 63.35, 117.68 54.47, 122.7 48.54 M100.44 73.61 C108.62 63.84, 114.67 57.39, 121.57 50.01 M106.05 71.46 C113.46 67.14, 118.05 60.77, 122.01 55.56 M106.64 72.96 C111.33 67.5, 115.23 62.7, 121.64 55.06 M111.35 73.91 C114.14 69.52, 118.58 65.58, 122.41 62.75 M111.65 73.53 C113.9 70.86, 115.63 68.65, 121.71 61.54 M117.64 72.13 C118.7 71.51, 118.86 70.52, 121.51 67.55 M117.33 72.54 C118.74 70.9, 119.65 69.39, 121.3 67.95" stroke="#ced4da" stroke-width="0.5" fill="none"></path><path d="M1.44 1.32 C38.84 0.87, 80.08 0.65, 120.84 0.41 M0.19 0.62 C28.43 0.51, 54.13 0.37, 120.7 -0.02 M121.58 0.12 C120.15 25.63, 121.52 52.97, 119.45 70.8 M119.7 0.66 C120.82 15.21, 121.12 32.58, 119.71 72.75 M121 72.21 C78.57 70.34, 37.31 72.51, 1.36 73.91 M121.11 73.38 C86.03 72.92, 52.83 73.54, -0.21 71.78 M-1.42 72.79 C1.05 48.87, -1.13 22.24, 1.34 0.13 M-0.4 72.02 C-0.39 54.92, 0 36.59, -0.4 -0.37" stroke="#000000" stroke-width="1" fill="none"></path></g><g transform="translate(20.32229270281107 184.86161398603554) rotate(0 51.54435863998421 7.543076874143935)"><text x="0" y="12.086153748288062" font-family="Helvetica, Segoe UI Emoji" font-size="13.409914442922721px" fill="#000000" text-anchor="start" style="white-space: pre;" direction="ltr">Worker-Thread-1</text></g><g stroke-linecap="round" transform="translate(172.5669374158067 133.36301649298684) rotate(0 60.20012471138847 36.1937618096938)"><path d="M0 0 C0 0, 0 0, 0 0 M0 0 C0 0, 0 0, 0 0 M-0.21 5.85 C1.49 3.49, 3.3 1.57, 4.47 -0.44 M-0.47 6.41 C0.96 5.11, 2.44 2.78, 4.75 0.45 M0.77 10.63 C1.43 7.83, 3.88 7.04, 10.36 -0.82 M0.15 12.45 C3.33 9.28, 6.8 5.93, 9.99 0.4 M-1.8 18.29 C5.25 9.53, 11.16 4.97, 14.29 2.18 M0.37 18.88 C3.01 14.51, 7.02 10.17, 15.65 -0.64 M-0.8 25.73 C8.14 15.22, 15.88 5.39, 20.6 1.73 M-0.67 24.9 C6.35 16.91, 11.76 9.95, 20.39 0.37 M1.98 29.64 C10.99 17.15, 19.34 8.03, 25.7 -1.22 M-0.92 30.73 C9.27 20.58, 18.62 8.09, 26.63 -0.17 M0.72 37.14 C11.03 22.9, 22.36 8.22, 31.8 -1.23 M0.3 36.26 C9.76 25.71, 20.16 12.94, 31.75 -0.41 M0.74 42.68 C10.11 31.17, 24.36 15.15, 38.67 0.53 M-0.19 41.98 C7.09 33.4, 14.96 24.77, 36.16 -0.39 M1.57 49.35 C11.67 35.39, 22.23 23.58, 41.88 1.21 M0.17 49.72 C11.25 35.32, 21.53 23.52, 42.09 0.41 M-1.51 54.53 C18.62 32.03, 38.66 13.03, 48.48 1.31 M-0.28 53.88 C16.9 35.8, 34.79 16.01, 47.8 -0.4 M-1.67 58.99 C12.73 44.86, 28.3 28.53, 51.35 1.67 M0.85 61.93 C16.66 40.88, 34.5 20.73, 52.35 0.34 M1.06 68.56 C17.45 44.65, 39.19 24.29, 56.88 0.49 M0.09 67.69 C16.54 46.43, 35.45 28.06, 57.85 -0.09 M-1.22 71.43 C21.63 48.57, 44.98 22.55, 63.23 -1.73 M-0.35 72.02 C16.39 55.37, 32.82 36.11, 64.21 0.13 M4.7 72.59 C24.87 49.33, 45.72 22.91, 68.12 -1.09 M4.83 72.86 C19.34 56.79, 31.39 42.54, 69.38 -0.07 M11.67 73.45 C28.6 50.61, 46.32 32.92, 75.02 -1.38 M11.13 72.28 C30.43 49.77, 48.58 28.75, 74.11 -0.21 M14.93 74.49 C32.24 56.91, 45.75 40.71, 80.96 -1.03 M17.4 72.66 C30.31 57.81, 43.29 41.28, 80.19 0.29 M23.25 73.51 C36.83 55.7, 54.16 35.46, 86.74 -0.15 M21.59 72.43 C37.97 52.66, 55 34.71, 85.22 0.57 M25.18 70.67 C48.84 48.16, 74.68 20.98, 88.67 0.52 M27.4 72.63 C51.7 44.91, 76.04 16.37, 90.85 0.87 M32.79 73.47 C52.78 48.43, 75.06 26.01, 96.87 0.56 M32.6 73.35 C47.76 53.88, 64.14 35.45, 95.49 -1.02 M35.94 73.75 C59.27 49.64, 80.05 23.09, 98.99 0.92 M37.75 72.27 C55.77 52.98, 71.31 33.34, 100.65 0.79 M42.04 72.69 C57.97 56.76, 73.95 39.57, 106.45 0.88 M42.46 73.15 C61.58 51.78, 80.31 30.43, 105.6 -1.24 M50.24 73.84 C62.2 54.53, 77.36 38.61, 110.19 -0.94 M48.14 72.33 C73.63 44.6, 97.82 14.37, 111.66 0.43 M55.26 72.05 C67.44 59.25, 79.38 43.12, 114.31 -0.83 M54.23 73.22 C77.71 46.38, 101.31 18.54, 116.32 -0.33 M57.57 70.55 C81.87 44.15, 108.75 15.61, 122.37 0.04 M59 72.82 C81.77 44.97, 106.37 17.98, 122.04 0.18 M63.2 73.91 C85.51 47.72, 103.46 28.1, 121.87 7.85 M63.73 72.2 C85.19 49.12, 105.52 25.19, 121.24 7.26 M69.95 73.02 C85.25 55.41, 98.88 39.07, 121.6 12.3 M69.52 72.99 C87.07 51.67, 106.19 30.45, 122.15 13.48 M75.14 74.13 C85.38 61.7, 94.48 50.64, 122.3 18.76 M75.5 71.95 C88.94 58.07, 100.43 43.5, 121.96 18.28 M81.88 71.84 C96.68 54.59, 108.17 38.31, 123.48 23.9 M79.62 73.36 C89.46 61.15, 97.97 51.68, 122.15 25.14 M86.82 74.09 C95.65 62.92, 102.41 51.26, 123.2 32.75 M84.86 73.61 C94.28 63.01, 104.53 50.78, 120.75 32.18 M89.71 71.91 C97.68 66.08, 106.24 56.56, 119.62 36.44 M89.35 72.41 C101.8 60.26, 112.81 47.84, 120.43 37.3 M96.5 72.65 C104.16 61.47, 115.44 48.8, 122.07 41.43 M95.87 73.55 C105.08 62.02, 115.36 51.43, 122.04 42.98 M102.27 73.31 C109.12 62.51, 117.5 56.57, 122.07 50.79 M101.44 73.66 C107.02 65.06, 113.29 58.12, 122.12 49.07 M104.93 74.19 C110.53 65.03, 119.06 57.96, 122.92 53.92 M107.34 73.41 C112.01 66.26, 118.51 58.83, 121.02 55.94 M112.54 72.2 C114.52 71.19, 116.87 65.18, 119.9 63.1 M111.42 72.33 C113.93 70.31, 116.93 65.67, 121.16 61.24 M116.57 72.6 C118.25 71.26, 119.78 69.31, 120.59 68.54 M117 72.45 C117.87 71.5, 118.89 70.32, 121 68.16" stroke="#ced4da" stroke-width="0.5" fill="none"></path><path d="M-0.25 -1.99 C26.95 2.67, 57.09 1.06, 119.72 -0.31 M0.72 -0.55 C46.11 -2.02, 93.2 -0.37, 120.04 -0.86 M119.03 -0.59 C119.08 13.16, 118.85 31.3, 119.1 71.11 M120.58 -0.4 C120.94 16.08, 120.85 31.26, 120.34 71.81 M122.11 71.42 C76.16 74.43, 36.65 72.51, -0.59 71.72 M120.18 72.71 C95.2 72.32, 71.34 72.06, 0.77 72.41 M0.41 73.74 C-0.42 54.48, 1.81 37.82, 1.3 0.09 M0.35 72.63 C-0.17 48.34, -0.05 25.73, 0.49 0.74" stroke="#000000" stroke-width="1" fill="none"></path></g><g transform="translate(181.8403288207321 184.11979628674817) rotate(0 51.5 7.5)"><text x="0" y="12" font-family="Helvetica, Segoe UI Emoji" font-size="13.409914442922721px" fill="#000000" text-anchor="start" style="white-space: pre;" direction="ltr">Worker-Thread-2</text></g><g stroke-linecap="round" transform="translate(329.78621785968875 134.39035368141776) rotate(0 60.20012471138847 36.1937618096938)"><path d="M0 0 C0 0, 0 0, 0 0 M0 0 C0 0, 0 0, 0 0 M-0.06 6.14 C1.89 4.65, 2.31 2.58, 4.24 1.02 M-0.4 6.05 C1.48 4.99, 3.24 2.77, 5.38 0.19 M0.59 11.6 C2.83 8.56, 8.46 4.34, 9.16 0.36 M-0.56 12.35 C2.9 8.93, 7.08 5.28, 11.02 0.07 M-0.26 18.34 C2.86 14.16, 9.75 10.76, 16.72 -0.92 M-0.26 18.29 C4.27 12.84, 9.45 8.14, 15.92 0.41 M-1.05 25.88 C5.36 16.25, 9.18 13.53, 20.6 -1.16 M0.31 23.36 C4.08 18.87, 9.24 14.03, 22.11 0.15 M1.65 29.84 C9.38 20.57, 16.85 12.06, 26.83 1.89 M-0.03 30.05 C10.13 20.71, 18.06 9.72, 25.35 0.28 M0.46 37.85 C10.17 27.45, 18.05 13.74, 30.78 -1.47 M0.24 37.17 C6.72 27.33, 14.31 19.61, 31.05 -1.09 M-1.66 40.72 C11.42 32, 20.5 22.02, 38.56 2.2 M-0.29 41.72 C11.63 30.01, 21.98 16.82, 37.53 0.86 M1.64 47.66 C8.98 38.74, 16.21 29.75, 43.21 0.52 M0.61 48.63 C8.97 38.68, 18.14 27.6, 41.84 -0.92 M-0.32 54.01 C12 37.87, 25.33 23.7, 46.52 -1.74 M-0.16 54.99 C13.76 39.13, 27.66 23.84, 46.96 0.21 M-1.52 60.31 C11.34 44.56, 26.42 33.41, 51.24 0.33 M0.28 61.57 C21.08 36.47, 41.95 12.61, 53.6 0.07 M0.38 67.97 C16.45 47.58, 33.9 29.68, 58.84 -1.17 M-0.17 67.05 C19.76 44.54, 38.84 22.34, 57.39 1.15 M1.07 74.57 C21.6 45.01, 46.59 19.07, 65.76 -0.03 M0 73.79 C22.48 46.59, 45.61 21.33, 64.7 0.08 M4.52 74.3 C25.27 48.56, 45.91 28.37, 69.14 -0.84 M6.28 72.79 C28.26 48.38, 48.24 23.53, 67.83 -0.78 M11.55 71.61 C25.94 56.29, 39.95 37.38, 75.12 -0.06 M10.26 73.78 C31.59 49.62, 50.06 26.8, 74.79 0.05 M16.51 73.77 C35.78 50.01, 52.21 31.85, 80.53 1.02 M15.84 72.39 C32.35 53.87, 48.75 35.17, 78.53 0.74 M20.51 71.27 C41.13 50.15, 60.34 26.69, 85.18 -0.75 M21.84 72.92 C46.99 44.3, 70.64 15.37, 84.73 -0.36 M27.62 72.68 C46.89 50.56, 66.05 27.48, 89.62 0.66 M27.8 71.83 C48.11 46.12, 71.16 21.1, 90.99 0.77 M30.6 71.8 C49.94 53.72, 70.1 29.06, 95.33 -0.59 M31.23 73.27 C54.65 46.36, 77.26 20.93, 96.65 -0.7 M39.2 70.54 C57.28 49.52, 78.41 22.29, 102.54 0.84 M37.3 72.54 C57.33 49.54, 79.42 24.25, 99.98 -0.89 M41.91 73.97 C57.87 55.86, 74.98 36.5, 106.42 0.43 M42.18 73.64 C59.29 53.49, 76.08 33.21, 105.94 0.21 M50.15 73.34 C71.33 49.34, 93.19 23.9, 110.9 -1.18 M48.71 72.71 C72.08 44.39, 95.65 17, 111.48 0.32 M52.07 73.04 C76.93 46.26, 102.94 16.98, 116.17 1.57 M53.7 73.58 C69.68 53.61, 85.89 36.86, 116.57 1.06 M60.81 73.6 C80.21 46.66, 100.77 21.29, 123.16 -0.88 M59.66 73.26 C81.51 46.29, 106.32 18.92, 122.1 0.48 M64.2 74.75 C85.34 46.11, 108.39 22.52, 119.85 9.12 M64.04 73.41 C83.28 51.19, 100.76 29.92, 121.82 7.82 M69.05 74.33 C89.07 51.12, 105.78 29.35, 120.76 14.54 M69.02 71.88 C83.94 55.56, 97.82 39.16, 121.17 12.19 M74.9 71.37 C87.88 56.53, 104.24 37.56, 119.49 17.83 M74.71 72.18 C91.1 53.98, 107.77 33.29, 121.47 19.16 M78.25 73.03 C87.99 62.72, 98.3 52.12, 121.65 26.54 M80.94 73 C90.67 60.33, 101.58 47.26, 122.26 24.95 M86.31 73.65 C98.63 58.87, 110.95 43.49, 122.54 32.43 M84.47 73.71 C96.39 60.33, 108.7 46.63, 120.51 31.98 M88.62 74.47 C95.83 66.88, 104.01 58.59, 122.79 39.13 M90.12 72.57 C98.72 63.6, 105.8 54.04, 121.74 37.07 M94.04 70.86 C105.44 63.71, 111.18 52.94, 121.37 41.43 M95.3 72.54 C100.61 66.64, 106.21 60.69, 120.56 43.22 M99.82 71.64 C107.81 65.52, 109.91 59.6, 120.62 48.54 M100.52 73.01 C105.71 68.66, 109.3 61.71, 121.17 49.36 M107.2 70.76 C108.99 68.7, 115.01 61.98, 121.85 55.83 M106.48 72 C113.18 66.59, 117.76 58.15, 122.49 54.56 M111.17 73.99 C113.19 71.07, 117.7 67.23, 122.64 60.28 M111.37 73.56 C113.58 70.97, 115.38 68.33, 121.36 61.64 M116.87 72.31 C118.96 71.01, 119.46 69.69, 121.52 68.63 M116.9 72.47 C118.56 70.93, 119.88 69.34, 121.24 67.82" stroke="#ced4da" stroke-width="0.5" fill="none"></path><path d="M1.01 1.3 C32.12 -0.51, 63.38 -1.5, 121.1 0.49 M-0.15 0.49 C31.8 0.03, 61.39 -0.29, 119.55 0.58 M119.46 1.35 C121.18 22.1, 120.97 41.66, 121.13 70.49 M120.98 0.64 C120.9 19.55, 119.95 37.21, 120.47 71.7 M119.5 71.1 C85.25 71.35, 54.84 71.25, -1.04 72.43 M119.57 71.81 C90.29 71.29, 58.88 71.25, 0.4 71.51 M0.69 72.05 C-0.32 55.94, -1.16 41.72, 0.05 1.01 M0.93 71.59 C-0.1 50.28, -0.71 26.86, -0.84 -0.07" stroke="#000000" stroke-width="1" fill="none"></path></g><g transform="translate(339.2109821950602 182.76251473142293) rotate(0 51.5 7.5)"><text x="0" y="12" font-family="Helvetica, Segoe UI Emoji" font-size="13.409914442922721px" fill="#000000" text-anchor="start" style="white-space: pre;" direction="ltr">Worker-Thread-3</text></g><g stroke-linecap="round" transform="translate(171.28582348142334 10) rotate(0 60.20012471138847 36.1937618096938)"><path d="M0 0 C0 0, 0 0, 0 0 M0 0 C0 0, 0 0, 0 0 M0.18 7.09 C0.56 5.19, 1.95 3.05, 4.85 -0.15 M-0.04 6.65 C1.65 3.73, 3.41 1.6, 4.76 0.57 M-0.87 11.2 C2.03 9.38, 5.33 2.84, 9.88 -0.51 M0.87 12.22 C4.82 8.09, 8.78 3.87, 10.62 -0.05 M0.9 19.13 C5.51 11.5, 12.79 6.5, 13.71 -0.03 M0.02 18.4 C4.06 13.32, 9.96 7.47, 14.72 -0.44 M-0.28 24.92 C7.76 14.46, 14.43 4.5, 20.92 0.32 M-0.49 23.57 C7.17 15.47, 15.06 5.66, 21.12 0.56 M0.69 31.08 C10.72 20.98, 17.2 9.46, 25.09 1.26 M-0.61 29.53 C7.16 24.04, 12.14 16.02, 27.21 -0.08 M-0.69 36.42 C8.68 25.63, 20.26 14.48, 31.77 -2.07 M-0.82 36.86 C8.78 26.67, 19.15 14.05, 32.23 -0.86 M0.21 41.09 C8.51 31.1, 16.88 23.54, 38.05 0.83 M-0.44 41.7 C12.01 28.28, 24.04 15.74, 37.43 0.85 M0.23 47.85 C13.34 35.2, 25.75 21.61, 42.78 0.8 M-0.06 48.53 C17.56 30.03, 34.06 9.31, 42.88 -0.79 M1.97 55.78 C17.31 34.01, 34.03 11.32, 46.35 2.03 M0.49 55.39 C18.39 33.48, 38.04 11.69, 47.69 0.49 M1.58 61.32 C16.4 41.05, 37.18 19.57, 52.93 -0.94 M0.44 60.44 C20.29 37.63, 42.07 13.32, 52.76 -0.48 M-1.68 68.01 C17.38 46.94, 35.88 25.6, 58.24 1.75 M0.18 67.12 C17.7 47.12, 34.77 27.74, 59.05 0.22 M1.62 71.71 C11.69 56.32, 24.87 43.31, 63.75 0.32 M0.75 72.98 C22.89 46.71, 44.06 22.24, 64.3 0.07 M3.99 71.11 C25.85 48.76, 48.4 26.99, 68.49 -1.66 M5.31 73.6 C27.93 47.78, 48.38 24.22, 69.31 0.65 M11.6 71.3 C28.86 53.08, 46.45 33.85, 75.24 1.7 M10.17 73.71 C25.68 54.38, 43.68 36.57, 74.68 0.11 M15.01 74.45 C39.04 47.33, 56.9 22.84, 78.35 -0.33 M16.07 73.33 C39.98 45.95, 62.66 19.79, 79.05 -0.32 M20.29 74.05 C44.91 43.71, 69.86 17.39, 85.91 -2.18 M21.76 73.57 C35.55 56.51, 49.22 39.06, 85.84 0.15 M27.31 71.93 C47.33 47.85, 69.33 24.47, 91.57 -0.89 M26.81 73.11 C51.02 46.02, 72.72 20.97, 89.56 0.42 M33.44 71.3 C53.75 50.9, 72.44 27.64, 96.76 0.8 M31.83 72.7 C49.19 50.7, 69.93 28.42, 96.47 -0.05 M35.88 73.68 C51.69 56.73, 66.91 39.17, 102.42 -0.47 M37.22 71.68 C51.47 56.03, 64.82 40.88, 100.9 -0.73 M43.32 71.95 C58.57 51.59, 79 33.81, 107.3 0.25 M43.43 72.48 C57.5 54.62, 71.73 39.55, 105.98 0.5 M50.24 71.31 C72.6 45.51, 92.28 20.95, 111.66 1.29 M47.72 73.06 C71.89 45.47, 94.44 18.07, 111.89 -0.16 M52.67 74.34 C74.47 46.43, 98.14 22.22, 114.89 0.05 M52.38 73.53 C73.27 50.73, 93.65 27.94, 115.92 0.81 M58.39 73.93 C79.36 47.77, 103.03 22.66, 121.89 -0.98 M59.51 72.5 C82.28 44.95, 105.15 19.85, 121.42 -0.23 M62.75 74.35 C83.2 51.73, 99.18 32.01, 119.44 6.09 M63.23 73.73 C85.16 49.26, 106.81 25.44, 120.63 7.68 M70.85 72.17 C85.35 52.98, 104.07 33.63, 121.67 14.65 M70.51 72.5 C84.48 55.43, 99.25 38.4, 120.62 13.76 M73.33 73.34 C83.49 63.02, 93.27 49.61, 120.61 19.74 M75.3 72.21 C88.47 55.94, 103.85 38.83, 120.43 19.1 M80.62 74.14 C88.8 59.27, 100.8 48.31, 121.11 25.72 M79.4 72.82 C93.01 57.45, 105.95 43.37, 122.39 23.86 M86.66 74.19 C97.3 55.86, 113.36 41.27, 120.51 31.33 M84.64 73.36 C94.32 62.98, 102.8 52.41, 120.37 31.79 M90.55 74.21 C101.82 59.52, 114.36 45.19, 122.31 39.37 M90.98 73.2 C101.42 60.25, 114.9 46.8, 121.88 37.46 M95.5 73.26 C103.42 64.05, 115.73 50.09, 123.14 41.98 M96.06 72.79 C103.34 63.06, 110.34 55.91, 121.62 43.01 M99.96 73.99 C107.62 66.88, 111.46 60.33, 119.84 49.93 M100.73 72.41 C107.72 65.6, 115.84 57.39, 120.96 48.93 M107.11 72.41 C110.11 67.26, 114.33 65.12, 123.01 54.31 M107.12 73.4 C110.77 68.82, 112.7 64.36, 122.11 55.26 M112.39 74.4 C113.88 68.36, 118.93 66.54, 120.92 63.08 M111.05 72.78 C115.33 68.35, 119.33 64.01, 120.54 62.03 M116.53 72.14 C118.02 72.07, 118.27 70.58, 120.85 68.42 M116.79 72.82 C117.94 71.57, 119.44 69.96, 121.27 68.38" stroke="#ced4da" stroke-width="0.5" fill="none"></path><path d="M-1.93 1.98 C26.37 -0.61, 50.81 1.62, 119.95 0.71 M0.9 -0.12 C29.24 -0.22, 58.36 1.22, 120.35 -0.35 M121.28 1.65 C122.07 16.13, 122.12 32.52, 121.64 70.53 M119.64 0.54 C120.99 20.75, 119.69 40.48, 120.5 73.34 M119.47 74.02 C83.74 74.72, 45.29 73.11, -0.73 72.82 M119.84 72.57 C95.09 73.2, 68.72 71.71, 0.09 73.26 M-0.62 72.47 C0.11 50.61, 0.7 25.24, -1.2 1.85 M0.14 71.47 C0.01 44.49, 0.15 14.82, -0.89 -0.1" stroke="#000000" stroke-width="1" fill="none"></path></g><g transform="translate(179.54105035138548 19.152681213445703) rotate(0 51.5 7.5)"><text x="0" y="12" font-family="Helvetica, Segoe UI Emoji" font-size="13.409914442922721px" fill="#000000" text-anchor="start" style="white-space: pre;" direction="ltr">Worker-Thread-0</text></g><g transform="translate(82.46701994944476 236.78494771800752) rotate(0 142.4627366783301 8.873111627023945)"><text x="0" y="13.746223254048036" font-family="Helvetica, Segoe UI Emoji" font-size="15.774420670264929px" fill="#000000" text-anchor="start" style="white-space: pre;" direction="ltr">Child nodes can be processed in parallel</text></g></svg>