<svg version="1.1" xmlns="http://www.w3.org/2000/svg" viewBox="0 0 854.6600451191928 407.8332842413024" width="854.6600451191928" height="407.8332842413024">
  <!-- svg-source:excalidraw -->
  
  <defs>
    <style>
      @font-face {
        font-family: "Virgil";
        src: url("https://excalidraw.com/Virgil.woff2");
      }
      @font-face {
        font-family: "Cascadia";
        src: url("https://excalidraw.com/Cascadia.woff2");
      }
    </style>
  </defs>
  <rect x="0" y="0" width="854.6600451191928" height="407.8332842413024" fill="#ffffff"></rect><g stroke-linecap="round" transform="translate(10 79.98861136570395) rotate(0 43.5 29.269937216827884)"><path d="M0 0 C0 0, 0 0, 0 0 M0 0 C0 0, 0 0, 0 0 M0.48 7.11 C1.24 4.44, 3.46 1.38, 4.98 0.13 M-0.08 6.07 C1.83 4.45, 2.76 2.25, 5.08 0.65 M1 11.59 C1.73 10.97, 3.3 7.79, 9.43 1.15 M0.9 12.59 C4.61 8.26, 8.65 3.8, 10.75 0.66 M1.21 20.33 C6.1 10.71, 10.65 3.94, 16.53 -0.48 M-0.37 17.93 C5.09 12.8, 9.65 8.09, 15.98 -0.57 M-1.16 25.61 C8.05 14.8, 15.39 6.51, 22.53 0.29 M0 23.25 C5.59 19.35, 8.92 13.57, 22.19 -1.04 M-0.89 32.38 C7.58 21.23, 16.06 10.54, 25.22 1.24 M0.83 29.95 C8.35 20.3, 17.64 8.65, 25.74 0.24 M-1.66 35.59 C10.84 23.59, 23.45 9.37, 33.66 -2.05 M0.3 36.7 C12.63 22.13, 23.58 7.95, 31.68 0.23 M1.16 43.34 C15.03 26.23, 25.75 13.22, 37.65 -0.79 M0.66 43.33 C8.8 31.73, 17.55 22.56, 37 -0.43 M1.63 48.15 C11.34 34.38, 26.86 19.29, 43.91 -2.07 M0.8 48.62 C15.32 32.61, 29.59 15.5, 42.4 0.08 M-1.27 54.7 C9.3 44.59, 18.05 31.05, 45.93 2.19 M1.27 54.5 C15.95 36.4, 32.81 17.16, 47.51 0.24 M-0.5 61.31 C22.08 36.6, 40.89 13.93, 52.14 -1.77 M0.91 60.07 C14.69 44.2, 27.44 29.94, 52.71 0.7 M6.59 59.7 C23.26 44.33, 34.87 24.48, 59.69 1.44 M5.92 59.84 C25.39 36.97, 44.37 13.59, 58.28 -0.21 M11.43 59.27 C25.01 44.27, 33.95 31.55, 62.7 -0.64 M12.51 58.54 C29.31 38.63, 47.59 19.6, 64.25 -0.99 M17.78 58.34 C34.11 38.32, 51.33 17.98, 70.03 -1.29 M17.94 58.8 C33.3 41.44, 49.44 23.25, 69.56 0.54 M21.36 60.34 C37.51 43.64, 51.92 26.22, 73.48 0.34 M21.67 59.91 C39.36 40.24, 56.06 22.79, 73.9 0.71 M27.6 60.91 C39.96 43.63, 56.31 30.72, 77.59 -1.73 M26.61 59.34 C47.84 37.22, 68.26 13.35, 78.86 -0.45 M31.9 58.79 C48.15 41.6, 62.06 24.24, 83.84 -1.34 M32.88 60.24 C52.23 38.46, 69.48 18.29, 85.78 0.23 M37.4 58.93 C50.56 44.9, 61.86 31.49, 87.15 0.37 M39.06 58.91 C54.28 40.53, 70.91 21.54, 89.61 2.13 M43.18 59.38 C58.51 45.2, 71.31 31.1, 87.43 6.65 M43.92 58.33 C57.1 43.04, 71.22 27.12, 88.06 7.05 M50.05 58.39 C65.81 40.22, 78.88 22.98, 90.48 15.34 M49.68 59.68 C60.63 44.89, 72.91 30.73, 87.95 13.9 M52.8 57.35 C63.51 49.9, 75.37 37.38, 90.55 18.27 M53.77 59.76 C65.92 47.01, 76.91 33.45, 89.3 20.58 M57.92 59.82 C69.61 47.41, 81.81 34.54, 89.86 24.37 M60.08 60.58 C65.25 51.38, 72.49 44.37, 88.31 25.6 M63.89 58.48 C68.23 55.04, 74.67 47.25, 88.35 30.77 M64.7 58.82 C74.34 49.12, 83.69 38.6, 88.66 31.72 M70.88 58.21 C75.91 52.15, 85.14 42.06, 87.26 38.47 M69.16 59.31 C77.87 50.37, 84.03 42.9, 88.55 38.05 M76.4 59.77 C80.5 54.74, 83.52 51.38, 90.19 43.64 M75.54 59.32 C80.12 53.09, 86.07 48.03, 89.28 43.91 M80.46 59.27 C83.42 56.72, 86.71 52.89, 88.31 49.53 M80.9 60 C83.04 57.73, 85.18 55.11, 88.08 50.53 M85.72 59.56 C86.23 59.33, 86.83 58.45, 89.48 55.84 M85.87 59.84 C86.6 59, 87.8 57.53, 89.12 55.95" stroke="#40c057" stroke-width="0.5" fill="none"></path><path d="M0.12 -1.39 C34.09 1.63, 67.79 1.6, 88.49 0.12 M0.58 0.88 C33.96 1.51, 68.27 1.34, 86.83 0.21 M88.75 1.71 C86.29 17.23, 88.57 36.77, 85.5 59.9 M86.85 0.56 C86.95 22, 87.37 45.27, 86.17 59.39 M85.72 58.53 C55.87 60.31, 21.81 59.51, 0.23 57.16 M86.76 58.26 C65.24 57.97, 43.7 59.2, 0.61 58.56 M0.28 59.59 C-1.88 43.91, -0.1 24.96, -0.96 1.91 M-0.73 58.13 C-1.18 37.41, -0.25 17.84, -0.17 -0.51" stroke="#000000" stroke-width="1" fill="none"></path></g><g transform="translate(15 91.25854858253206) rotate(0 38.5 18)"><text x="38.5" y="14" font-family="Helvetica, Segoe UI Emoji" font-size="16px" fill="#000000" text-anchor="middle" style="white-space: pre;" direction="ltr">Crawler </text><text x="38.5" y="32" font-family="Helvetica, Segoe UI Emoji" font-size="16px" fill="#000000" text-anchor="middle" style="white-space: pre;" direction="ltr">Service</text></g><g stroke-linecap="round" transform="translate(347.8777480500127 86.75191452287754) rotate(0 5.924005364839104 18.5990836822275)"><path d="M1.16 4.98 C1.16 4.98, 1.16 4.98, 1.16 4.98 M1.16 4.98 C1.16 4.98, 1.16 4.98, 1.16 4.98 M1.08 12.42 C5.08 8.03, 5.89 4.92, 9.9 2.35 M1.17 11.14 C3.06 8.9, 5.43 6.47, 8.46 2.58 M2.49 14.92 C5.33 12.03, 7.05 8.54, 12.94 5.39 M2.42 16.4 C3.67 12.93, 6.98 10.75, 11.17 5.24 M3.17 21.11 C6.21 17.99, 8.98 12.75, 13.7 9.79 M1.27 23.04 C5.6 19.44, 7.84 15.53, 11.76 9.97 M0.56 28.97 C6.21 26.03, 7.96 19.26, 11.48 16.23 M2.18 28.24 C5.22 26.39, 7.32 22.47, 12.43 16.83 M2.84 33.66 C6.5 30.74, 9.17 28.44, 12.89 23.75 M3.4 32.83 C5.17 30.13, 8.43 27.78, 12.88 22.73 M5.63 35.82 C7.07 34.89, 7.59 34.15, 12.29 27.27 M5.88 36.04 C8.07 34.33, 9.79 31.72, 12.55 28.8" stroke="#40c057" stroke-width="0.5" fill="none"></path><path d="M6.66 0.48 C8.13 0.15, 9.84 1.45, 10.56 3.75 C11.28 6.05, 10.99 10.5, 10.99 14.29 C10.99 18.07, 10.98 22.89, 10.57 26.46 C10.15 30.03, 9.59 34.15, 8.49 35.71 C7.38 37.26, 5.2 36.88, 3.93 35.78 C2.67 34.69, 1.42 32.52, 0.89 29.15 C0.37 25.77, 0.73 19.6, 0.79 15.55 C0.86 11.5, 0.36 7.29, 1.29 4.83 C2.22 2.36, 5.24 1.29, 6.35 0.76 C7.46 0.23, 7.92 1.57, 7.96 1.64 M5.43 -0.83 C6.4 -1.26, 7.53 1.92, 8.79 4.23 C10.06 6.53, 12.8 9.09, 13.01 13.01 C13.23 16.93, 10.77 24.07, 10.09 27.74 C9.4 31.41, 9.59 33.33, 8.88 35.03 C8.17 36.73, 7.3 38.75, 5.83 37.94 C4.36 37.13, 1.16 33.73, 0.06 30.18 C-1.03 26.63, -1.01 20.83, -0.74 16.66 C-0.47 12.48, 0.61 7.95, 1.68 5.13 C2.75 2.32, 5.31 0.46, 5.68 -0.21 C6.05 -0.88, 4.15 0.53, 3.9 1.13" stroke="#000000" stroke-width="1" fill="none"></path></g><g stroke-linecap="round" transform="translate(210.71600318979193 88.63842358615784) rotate(0 4.769779803431675 22.324709765869557)"><path d="M4.3 1.08 C4.3 1.08, 4.3 1.08, 4.3 1.08 M4.3 1.08 C4.3 1.08, 4.3 1.08, 4.3 1.08 M2.49 10.4 C3.39 7.59, 4.85 6.63, 7.41 3.16 M2.42 9.59 C3.34 7.99, 5.42 6.15, 7.59 3.32 M2.16 16.57 C4.66 14.65, 6.51 11.76, 8.23 8.84 M0.72 16.94 C2.46 15.53, 3.66 13.2, 7.93 9.14 M0.51 25.46 C1.25 22.25, 6.21 16.79, 9.43 13.51 M-1.81 26.31 C3.41 20.9, 7.11 16.23, 9.01 12.84 M-0.65 31.37 C2.26 27.03, 4.03 25.61, 9.15 20.43 M0.07 30.41 C3.5 27.87, 5.11 23.58, 10.39 19.6 M0.47 35.37 C3.86 31.38, 6.59 26.08, 10.41 24.22 M0.84 35.29 C3.64 32.45, 4.72 30.34, 9.83 24.62 M3.51 38.24 C4.74 35.08, 8.68 33.35, 12.57 27.81 M3.02 38.97 C5.57 35.6, 8.51 32.04, 12.35 28.4" stroke="#40c057" stroke-width="0.5" fill="none"></path><path d="M4.17 1.23 C5.04 -0.15, 5.34 0.3, 6.04 2.25 C6.73 4.2, 7.73 8.85, 8.32 12.93 C8.92 17, 9.87 22.07, 9.59 26.7 C9.32 31.34, 7.56 37.9, 6.67 40.75 C5.78 43.6, 5.02 44.01, 4.23 43.78 C3.43 43.55, 2.75 42.44, 1.89 39.36 C1.03 36.29, -0.92 30.4, -0.95 25.35 C-0.98 20.31, 0.85 13.26, 1.71 9.09 C2.57 4.92, 3.81 1.83, 4.19 0.32 C4.57 -1.19, 3.84 -0.24, 3.97 0.05 M4.56 0.86 C5.81 1.37, 8.49 4.7, 9.1 8.27 C9.71 11.84, 8.43 17.91, 8.22 22.29 C8 26.66, 8.1 31.11, 7.8 34.52 C7.51 37.93, 7.42 41.6, 6.43 42.77 C5.44 43.93, 2.9 43.31, 1.88 41.5 C0.86 39.7, 0.4 36.37, 0.31 31.94 C0.21 27.51, 1.17 19.8, 1.3 14.92 C1.43 10.05, 0.43 5.21, 1.1 2.69 C1.77 0.18, 4.47 0.38, 5.33 -0.17 C6.19 -0.71, 6.05 -0.77, 6.26 -0.59" stroke="#000000" stroke-width="1" fill="none"></path></g><g stroke-linecap="round"><g transform="translate(215.3420780888893 87.88015089945839) rotate(0 70.54071717505406 -1.280467585296492)"><path d="M-1.05 0.99 C22.13 0.23, 116.1 -2.78, 139.75 -3.55 M0.6 0.46 C24.11 -0.26, 118.85 -1.94, 142.13 -2.5" stroke="#000000" stroke-width="1" fill="none"></path></g></g><g stroke-linecap="round"><g transform="translate(213.72769107849712 133.0829871904416) rotate(0 70.92879244106933 -4.0698508032519385)"><path d="M0.96 -0.36 C24.1 -1.48, 116.21 -4.96, 139.47 -6.21 M0 -1.6 C23.49 -3.07, 118.51 -6.89, 141.85 -7.78" stroke="#000000" stroke-width="1" fill="none"></path></g></g><g transform="translate(227.78631129399645 97.69973980886743) rotate(0 59 9)"><text x="0" y="14" font-family="Helvetica, Segoe UI Emoji" font-size="16px" fill="#000000" text-anchor="start" style="white-space: pre;" direction="ltr">Message Queue</text></g><g stroke-linecap="round" transform="translate(685.3207114063905 273.66060730420577) rotate(0 24.183754581981702 5.1960857166839105)"><path d="M3.25 2.82 C3.25 2.82, 3.25 2.82, 3.25 2.82 M3.25 2.82 C3.25 2.82, 3.25 2.82, 3.25 2.82 M3.81 8.79 C4.05 8.21, 5.47 6.02, 9.52 3.27 M2.58 8.84 C5.14 7.38, 6.89 4.34, 8.66 2.53 M7.07 10.21 C8.77 7.21, 10.98 5.44, 15.26 1.57 M7.72 9.92 C10.76 6.25, 12.26 3.56, 15.61 0.86 M11.69 10.78 C14.26 8.55, 16.07 7.9, 18.34 3.86 M12.68 10.98 C13.36 8.91, 15.37 7.57, 18.45 3.15 M16.08 12.43 C19.17 9.21, 22.36 5.03, 24.68 3.68 M17.11 11.76 C18.94 8.12, 22.76 4.94, 24.09 2.53 M22.53 12.8 C22.57 9.48, 25.01 7.69, 31.23 3.17 M21.85 11.92 C24.63 8.94, 26.77 6.99, 30.09 2.21 M25.93 12.95 C28.75 10.72, 32.53 7.68, 36.34 1.41 M26.82 11.99 C29.12 10.25, 30.99 7.49, 35.37 1.42 M33.12 11.43 C33.9 9.19, 36.27 8.23, 40.43 2.76 M31.76 11.77 C34.57 9.31, 37.21 5.78, 39.75 3.25 M37.48 11.72 C40.21 9.18, 42.97 6.48, 46.14 2.55 M38.3 11.92 C39.76 10.23, 41.06 8.05, 45.16 3.1" stroke="#40c057" stroke-width="0.5" fill="none"></path><path d="M16.45 1.08 C21.19 0.51, 28.35 -0.63, 33.03 -0.34 C37.71 -0.06, 42.07 1.71, 44.55 2.77 C47.03 3.83, 48.53 4.92, 47.91 6.01 C47.29 7.09, 44.8 8.6, 40.85 9.28 C36.89 9.96, 29.39 10.19, 24.17 10.1 C18.94 10.02, 13.29 9.27, 9.48 8.77 C5.67 8.28, 2.36 8.13, 1.31 7.15 C0.26 6.17, 0.51 3.9, 3.18 2.9 C5.85 1.9, 14.5 1.49, 17.33 1.17 C20.15 0.85, 20.08 1.11, 20.13 0.98 M33.5 1.66 C37.91 2, 42.72 2.25, 45.29 3.2 C47.86 4.16, 49.81 6.33, 48.91 7.39 C48.01 8.45, 44.04 9.07, 39.89 9.56 C35.75 10.04, 29.49 10.33, 24.05 10.29 C18.61 10.25, 10.98 10.21, 7.24 9.33 C3.51 8.46, 1.99 6.21, 1.63 5.06 C1.28 3.91, 2.32 3.35, 5.13 2.41 C7.95 1.48, 13.54 -0.29, 18.53 -0.55 C23.52 -0.81, 32.34 0.87, 35.07 0.86 C37.81 0.84, 35.32 -0.88, 34.93 -0.64" stroke="#000000" stroke-width="1" fill="none"></path></g><g stroke-linecap="round" transform="translate(688.6206428497455 346.2731669752584) rotate(0 21.05665755039786 3.9078664382484476)"><path d="M2.28 1.98 C2.28 1.98, 2.28 1.98, 2.28 1.98 M2.28 1.98 C2.28 1.98, 2.28 1.98, 2.28 1.98 M3.07 7.23 C4.84 4.46, 7.55 1.97, 8.46 0.19 M2.38 7.24 C5.02 5.23, 7.66 2.37, 8.94 -0.1 M7.24 8.5 C8.87 6.49, 9.42 4.38, 12.37 1.43 M6.73 8.87 C9.28 6.51, 11.29 4.23, 12.9 1.79 M11.81 9.64 C12.65 7.29, 15.15 4.99, 18.95 2.01 M10.74 10.25 C13.27 7.95, 16.22 4.48, 18.73 2.04 M16.94 10.03 C20.4 7.14, 22.97 2.12, 24.57 1.02 M16.32 9.94 C18.44 8.12, 21.16 5.02, 24.42 0.74 M21.78 9.78 C25.79 6.56, 26.46 3.32, 29.4 1.03 M22.22 9.45 C25 6.55, 26.55 4.99, 28.85 1.98 M27.95 8.28 C29.36 6.14, 31.11 4.57, 33.5 1.84 M28.65 8.98 C29.76 6.81, 30.71 5.64, 33.12 2.44 M33.69 8.36 C36 6.82, 37.49 5.36, 37.91 2.86 M33.65 8.02 C35.8 6.24, 37.45 4.47, 38.3 2.81" stroke="#40c057" stroke-width="0.5" fill="none"></path><path d="M11.09 -0.11 C15.12 -0.71, 22.59 -0.64, 26.99 -0.34 C31.39 -0.04, 34.92 0.99, 37.49 1.7 C40.07 2.4, 42.57 2.92, 42.44 3.89 C42.32 4.87, 40.03 6.8, 36.74 7.56 C33.46 8.33, 27.45 8.43, 22.72 8.51 C17.99 8.59, 12.15 8.5, 8.35 8.04 C4.54 7.58, 0.89 6.78, -0.1 5.75 C-1.09 4.71, 0.39 2.61, 2.4 1.85 C4.41 1.08, 10.14 1.54, 11.95 1.15 C13.76 0.77, 13.02 -0.49, 13.26 -0.47 M13.21 -0.1 C16.93 -0.36, 23.53 -0.18, 27.7 0.16 C31.86 0.5, 35.64 1.08, 38.21 1.93 C40.79 2.78, 43.47 4.38, 43.17 5.26 C42.87 6.14, 39.65 6.81, 36.42 7.21 C33.19 7.61, 28.61 7.85, 23.78 7.67 C18.95 7.49, 11.11 6.72, 7.44 6.14 C3.77 5.56, 2.82 4.96, 1.76 4.21 C0.7 3.46, -0.57 2.15, 1.07 1.65 C2.72 1.15, 9.89 1.23, 11.61 1.2 C13.33 1.17, 10.99 1.76, 11.39 1.46" stroke="#000000" stroke-width="1" fill="none"></path></g><g stroke-linecap="round"><g transform="translate(684.8229429974315 278.8334620283649) rotate(0 1.3647301535744418 35.18279089935163)"><path d="M-0.77 -0.75 C-0.23 11.21, 2.88 59.09, 3.5 71.12 M1.03 1.47 C1.41 13.16, 2.56 58.09, 2.73 69.45" stroke="#000000" stroke-width="1" fill="none"></path></g></g><g stroke-linecap="round"><g transform="translate(732.8975352539089 279.4985454993903) rotate(0 -0.5694315447641429 35.21148404184464)"><path d="M1.18 -0.79 C0.9 10.96, -0.71 59.34, -1.29 71.22 M0.34 1.4 C-0.14 12.72, -2.25 57.61, -2.32 69.32" stroke="#000000" stroke-width="1" fill="none"></path></g></g><g transform="translate(689.4948634209152 302.44377823360037) rotate(0 21.033328803500808 14.789059314961605)"><text x="0" y="7.859372876641013" font-family="Helvetica, Segoe UI Emoji" font-size="8.343471338970454px" fill="#000000" text-anchor="start" style="white-space: pre;" direction="ltr">Distributed</text><text x="0" y="17.718745753282025" font-family="Helvetica, Segoe UI Emoji" font-size="8.343471338970454px" fill="#000000" text-anchor="start" style="white-space: pre;" direction="ltr">In-Memory </text><text x="0" y="27.57811862992304" font-family="Helvetica, Segoe UI Emoji" font-size="8.343471338970454px" fill="#000000" text-anchor="start" style="white-space: pre;" direction="ltr">cache</text></g><g stroke-linecap="round"><g transform="translate(99.61070928139458 112.61879730302462) rotate(0 53.55160746235177 -0.1851740885936124)"><path d="M-0.51 1.14 C17.39 1, 89.62 0.61, 107.61 0.31 M1.42 0.69 C19.22 0.71, 89.51 -1.47, 107.12 -1.51" stroke="#000000" stroke-width="1" fill="none"></path></g><g transform="translate(99.61070928139458 112.61879730302462) rotate(0 53.55160746235177 -0.1851740885936124)"><path d="M81.02 10.69 C88.91 7.09, 96.26 3.55, 105.2 0.22 M78.65 8.46 C89.55 5.87, 101.19 1.45, 107.59 -1.2" stroke="#000000" stroke-width="1" fill="none"></path></g><g transform="translate(99.61070928139458 112.61879730302462) rotate(0 53.55160746235177 -0.1851740885936124)"><path d="M80.65 -9.83 C88.85 -6.88, 96.32 -3.86, 105.2 0.22 M78.28 -12.06 C89.18 -6.74, 100.96 -3.26, 107.59 -1.2" stroke="#000000" stroke-width="1" fill="none"></path></g></g><g stroke-linecap="round" transform="translate(596.8273184623904 270.14221453417167) rotate(0 24.92175060495009 5.354650449919063)"><path d="M-1.01 5.74 C-1.01 5.74, -1.01 5.74, -1.01 5.74 M-1.01 5.74 C-1.01 5.74, -1.01 5.74, -1.01 5.74 M3.64 6.94 C4.42 5.66, 4.42 5.57, 7 2.91 M3.62 6.82 C4.64 5.24, 6.34 3.34, 7.13 2.59 M7.15 8.58 C8.34 7.51, 9.23 6.2, 10.15 5.18 M6.81 8.81 C8 7.88, 8.8 6.73, 10.3 5.06 M11.69 9.59 C12.3 7.9, 14.91 6.16, 16.29 3.78 M11.08 10.12 C13.01 7.69, 15.03 6.18, 16.69 3.59 M15.12 11.13 C19.03 9.54, 20.75 6.61, 23.68 0.04 M15.34 10.66 C17.92 8.44, 19.69 6.88, 24.43 0.62 M19.87 13.17 C23 9.36, 25.07 5.56, 29.24 2.57 M19.97 12.05 C22.29 9.07, 23.38 7.65, 29.33 1.46 M25.29 12.39 C28.39 8.78, 31.31 6.09, 34.11 2.2 M26.11 11.79 C28.26 9.38, 30.11 5.63, 34.72 1.6 M31.17 12.48 C32.8 8.37, 35.27 7.06, 38.44 1.34 M31.85 11.25 C34.42 8.85, 35.96 5.8, 39.13 2.32 M37.92 10.03 C39.17 8.7, 40.59 6.05, 43.53 2.51 M37.78 9.73 C39.67 8.25, 40.82 5.76, 43.23 3.41 M44.36 9.42 C44.81 7.3, 45.89 5.72, 48.2 3.82 M43.61 9.02 C44.97 7.89, 45.89 6.98, 48.76 3.44" stroke="#40c057" stroke-width="0.5" fill="none"></path><path d="M22.61 -0.49 C27.67 -0.63, 33.79 0.52, 38.08 1.15 C42.37 1.77, 46.74 2.2, 48.37 3.27 C50.01 4.35, 49.77 6.49, 47.87 7.59 C45.98 8.7, 41.72 9.28, 37 9.91 C32.28 10.54, 24.77 11.76, 19.53 11.38 C14.29 11.01, 8.93 8.64, 5.56 7.65 C2.18 6.65, -1.02 6.27, -0.72 5.4 C-0.41 4.54, 2.59 3.45, 7.39 2.48 C12.19 1.51, 23.48 0.05, 28.09 -0.42 C32.7 -0.9, 34.9 -0.51, 35.05 -0.34 M21.09 0.23 C26.36 0.19, 33.38 1.06, 38.16 1.72 C42.94 2.39, 48.25 3.11, 49.75 4.19 C51.26 5.28, 49.26 7.14, 47.18 8.24 C45.1 9.35, 41.96 10.31, 37.29 10.82 C32.62 11.33, 24.31 11.72, 19.16 11.31 C14.02 10.89, 9.57 9.35, 6.42 8.33 C3.28 7.3, 0.5 6.12, 0.29 5.16 C0.08 4.2, 1.52 3.39, 5.15 2.57 C8.78 1.76, 19.22 0.57, 22.05 0.29 C24.89 0.02, 22.17 1.03, 22.15 0.95" stroke="#000000" stroke-width="1" fill="none"></path></g><g stroke-linecap="round" transform="translate(600.227951237006 344.97063279215536) rotate(0 21.699226489663317 4.027119628647142)"><path d="M3.39 1.62 C3.39 1.62, 3.39 1.62, 3.39 1.62 M3.39 1.62 C3.39 1.62, 3.39 1.62, 3.39 1.62 M3.26 8.53 C4.94 4.55, 8.58 2.44, 10.65 1.31 M3.06 7.68 C5.08 5.92, 6.55 3.73, 10.12 0.93 M8.5 7.68 C10.48 5.51, 12.04 4.49, 15.08 0.45 M8.92 7.92 C10.68 5.94, 12.05 3.83, 14.87 0.97 M13.47 7.13 C15.49 6.18, 17.42 3.8, 19.64 1.41 M14.07 8.02 C15.73 5.88, 18.45 3.08, 19.42 1.08 M18.24 10.05 C21.99 6.3, 24.62 2.23, 24.37 0.14 M17.84 9.23 C19.7 7.03, 22.12 5.33, 24.86 1.08 M24.52 8.63 C26.95 4.93, 29.39 3, 31.05 0.36 M23.72 8.96 C25.68 5.5, 28.75 3.23, 30.26 1.12 M29.81 8.52 C31.26 6.61, 33.27 3.9, 34.83 2.18 M29.45 8.45 C31.57 5.89, 32.87 4.32, 34.46 1.88 M36.37 7.15 C36.65 5.82, 38.56 3.06, 39.75 2.04 M35.66 7.5 C37.17 5.48, 38.31 4.33, 40.32 1.9 M38.62 9.65 C40.35 7.98, 41.19 6.99, 42.08 5.34 M38.43 9.98 C40.32 7.81, 41.55 6.24, 42.68 5.23" stroke="#40c057" stroke-width="0.5" fill="none"></path><path d="M12.96 -0.07 C17.02 -0.62, 24.18 -0.5, 28.62 -0.17 C33.05 0.15, 37.09 0.96, 39.55 1.87 C42.01 2.78, 43.94 4.41, 43.36 5.29 C42.78 6.17, 39.4 6.63, 36.07 7.17 C32.73 7.72, 28.11 8.68, 23.35 8.56 C18.58 8.44, 11.22 6.95, 7.47 6.46 C3.71 5.97, 1.51 6.4, 0.81 5.61 C0.11 4.83, 0.72 2.62, 3.27 1.77 C5.82 0.91, 13.5 0.63, 16.11 0.5 C18.72 0.36, 18.78 1, 18.95 0.95 M12 0.9 C16.01 0.67, 22.93 1.44, 27.53 1.39 C32.13 1.34, 36.81 0.06, 39.61 0.57 C42.42 1.08, 44.56 3.61, 44.35 4.47 C44.14 5.32, 41.59 4.98, 38.37 5.71 C35.16 6.44, 29.87 8.52, 25.05 8.85 C20.24 9.18, 13.52 8.46, 9.49 7.7 C5.45 6.94, 2.02 4.98, 0.84 4.29 C-0.33 3.6, 0.57 4.01, 2.44 3.55 C4.31 3.09, 10.33 1.96, 12.06 1.55 C13.79 1.13, 12.81 1.31, 12.81 1.04" stroke="#000000" stroke-width="1" fill="none"></path></g><g stroke-linecap="round"><g transform="translate(596.1386717163191 275.4793896028864) rotate(0 1.3970668597309555 36.19643554969048)"><path d="M-0.3 -0.93 C0.16 11.11, 2.61 61.18, 3.09 73.32 M1.75 1.2 C2 13.42, 2.1 59.72, 2.06 71.69" stroke="#000000" stroke-width="1" fill="none"></path></g></g><g stroke-linecap="round"><g transform="translate(645.55232343889 276.1310854480307) rotate(0 -0.09040272501545132 36.10530707120893)"><path d="M-0.93 -0.16 C-1.15 11.94, -0.12 60.06, -0.24 72.3 M0.78 -1.29 C0.38 10.98, -0.13 61.43, -0.69 73.5" stroke="#000000" stroke-width="1" fill="none"></path></g></g><g transform="translate(601.1288496882585 299.8037381445906) rotate(0 21.675185838319294 15.240365042568328)"><text x="0" y="8.16024336171217" font-family="Helvetica, Segoe UI Emoji" font-size="8.598082286374707px" fill="#000000" text-anchor="start" style="white-space: pre;" direction="ltr">Distributed</text><text x="0" y="18.32048672342434" font-family="Helvetica, Segoe UI Emoji" font-size="8.598082286374707px" fill="#000000" text-anchor="start" style="white-space: pre;" direction="ltr">In-Memory </text><text x="0" y="28.480730085136514" font-family="Helvetica, Segoe UI Emoji" font-size="8.598082286374707px" fill="#000000" text-anchor="start" style="white-space: pre;" direction="ltr">cache</text></g><g stroke-linecap="round" transform="translate(514.2848701330915 272.4143433924514) rotate(0 25.27007969850837 5.429491923421665)"><path d="M1.69 2.8 C1.69 2.8, 1.69 2.8, 1.69 2.8 M1.69 2.8 C1.69 2.8, 1.69 2.8, 1.69 2.8 M2.41 8.45 C4.78 5.85, 4.81 5.4, 7.89 1.11 M2.58 8.03 C4.83 5.38, 6.56 3.88, 7.87 1.67 M6.14 10.04 C8.59 6.37, 12.39 2.73, 13.99 1.96 M6.47 9.79 C9.12 6.5, 11.42 3.88, 13.46 0.73 M10.29 10.63 C13.64 8.61, 17.19 3.86, 20.19 0.94 M10.94 10.32 C12.74 8.62, 15.21 5.2, 19.36 1.42 M14.53 10.59 C17.87 6.67, 21.52 2.59, 23.62 1.56 M15.35 11.21 C17.9 9.46, 19.77 6.01, 24.81 1.16 M20.14 13.28 C22.6 8.97, 27.89 3.71, 29.86 1.58 M20.24 12.09 C22.14 10.24, 24.87 7.22, 30.32 1.02 M25.66 12.1 C28.25 9.33, 30.81 6.38, 35.14 1.68 M26.32 11.46 C28.55 8.18, 32.82 3.78, 35.59 1.18 M29.88 11.07 C32.88 9.41, 33.99 9.03, 39.8 2.88 M30.69 12.21 C34.27 8.16, 37.63 4.38, 39.8 1.39 M37.07 9.85 C40.14 8.46, 43.72 4.8, 43.8 2.7 M36.68 11.05 C39.89 7.22, 42.49 4.8, 45.24 1.53 M43.03 9.92 C43.97 8.6, 46.28 6.4, 47.97 4.86 M43.6 9.55 C44.56 8.27, 46.41 6.7, 47.82 4.58" stroke="#40c057" stroke-width="0.5" fill="none"></path><path d="M28.9 0.22 C34.21 0.35, 41.21 0.63, 44.85 1.6 C48.48 2.58, 50.56 5.03, 50.69 6.07 C50.82 7.11, 49.12 7.02, 45.62 7.85 C42.11 8.69, 34.92 10.54, 29.66 11.06 C24.4 11.58, 18.74 11.66, 14.04 10.98 C9.33 10.29, 3.47 8.32, 1.41 6.96 C-0.65 5.6, -0.25 3.86, 1.66 2.84 C3.56 1.81, 8 1.42, 12.84 0.81 C17.67 0.2, 27.35 -0.74, 30.65 -0.8 C33.96 -0.86, 32.7 0.15, 32.67 0.45 M32.24 1.26 C37.05 1.58, 44.21 2.44, 47.04 3.38 C49.87 4.32, 49.9 5.97, 49.2 6.92 C48.5 7.87, 46.68 8.45, 42.85 9.09 C39.03 9.72, 31.94 10.53, 26.24 10.75 C20.53 10.97, 12.73 11.07, 8.63 10.4 C4.52 9.74, 2.35 7.87, 1.6 6.74 C0.86 5.61, 1.67 4.81, 4.16 3.62 C6.65 2.43, 11.81 -0.03, 16.53 -0.38 C21.24 -0.73, 29.85 1.49, 32.43 1.5 C35.02 1.52, 32.25 -0.07, 32.03 -0.28" stroke="#000000" stroke-width="1" fill="none"></path></g><g stroke-linecap="round" transform="translate(517.7330332498036 348.28863180287226) rotate(0 22.00251465002873 4.08340632183058)"><path d="M-0.67 4.72 C-0.67 4.72, -0.67 4.72, -0.67 4.72 M-0.67 4.72 C-0.67 4.72, -0.67 4.72, -0.67 4.72 M3.49 7.01 C3.51 5.41, 4.87 4.93, 5.95 2.95 M3.22 6.82 C3.77 5.73, 5.04 4.3, 6.3 2.96 M7.04 8.12 C7.71 7.64, 8.42 5.98, 12.45 2.88 M6.85 8.58 C8.44 6.27, 10.52 4.14, 11.55 2.44 M11.64 9.06 C14.45 7.43, 15.16 4.78, 18.3 0.89 M11.4 8.7 C14.6 5.94, 16.48 3.03, 18.66 1.77 M15.72 8.52 C18.38 5.74, 20.92 3.11, 24.14 0.51 M16.21 9.46 C19.07 6.63, 20.6 4.91, 23.83 1.25 M22.48 8.66 C23.88 8.14, 24.59 6.02, 29.42 0.22 M21.6 9.49 C23.53 8.19, 24.59 6.23, 29 1.25 M26.91 9.77 C29.83 6.61, 32.62 4.12, 34.24 2.44 M26.41 9.36 C28.71 7.92, 30.13 6.36, 33.84 1.11 M30.88 10.49 C33.72 7.13, 37.48 4.63, 39.13 3.48 M31.69 10.29 C33.12 8.5, 34.76 6.76, 38.07 3.07 M35.77 10.75 C38.64 9.64, 39.8 6.61, 43.1 4.4 M36.67 10.58 C37.51 8.99, 39.4 8.09, 42.23 3.72" stroke="#40c057" stroke-width="0.5" fill="none"></path><path d="M18.16 0.78 C22.56 0.61, 28.43 0.3, 32.64 0.69 C36.85 1.09, 41.9 2.49, 43.42 3.16 C44.95 3.83, 43.46 3.84, 41.8 4.7 C40.14 5.56, 37.26 7.83, 33.48 8.34 C29.7 8.84, 23.91 7.93, 19.13 7.73 C14.34 7.52, 8.12 7.58, 4.79 7.12 C1.45 6.66, -0.93 5.97, -0.89 4.97 C-0.85 3.98, 1.51 2.02, 5.03 1.17 C8.55 0.31, 17 -0.01, 20.22 -0.17 C23.45 -0.32, 24.16 0.01, 24.39 0.21 M32.14 0.6 C36.36 0.89, 40.69 0.38, 42.67 1.27 C44.64 2.16, 45.38 4.87, 43.99 5.94 C42.6 7.01, 38.32 7.49, 34.35 7.7 C30.37 7.92, 24.64 7.17, 20.13 7.23 C15.62 7.3, 10.58 8.36, 7.28 8.08 C3.98 7.81, 0.76 6.54, 0.32 5.58 C-0.11 4.61, 2.15 3.34, 4.66 2.3 C7.18 1.25, 10.77 -0.19, 15.39 -0.7 C20.01 -1.2, 29.89 -0.67, 32.38 -0.72 C34.87 -0.76, 30.76 -1.31, 30.31 -0.95" stroke="#000000" stroke-width="1" fill="none"></path></g><g stroke-linecap="round"><g transform="translate(513.7804737770657 277.65690240909953) rotate(0 2.0760286406085697 36.60137280896038)"><path d="M0.35 -0.44 C0.9 11.87, 2.17 60.94, 2.69 73.39 M-0.93 -1.71 C0.08 10.83, 4.46 62.57, 5.08 74.92" stroke="#000000" stroke-width="1" fill="none"></path></g></g><g stroke-linecap="round"><g transform="translate(563.8782707191622 278.0977482192052) rotate(0 -0.3126810191741356 37.590159787863286)"><path d="M-0.44 -0.61 C-0.56 11.69, -1.22 61.77, -1.2 74.15 M1.53 1.69 C1.29 14.18, -1.79 63.59, -2.16 75.79" stroke="#000000" stroke-width="1" fill="none"></path></g></g><g transform="translate(518.6465234786522 302.490443482528) rotate(0 21.978137984637215 15.453378270447956)"><text x="0" y="8.302252180298686" font-family="Helvetica, Segoe UI Emoji" font-size="8.718256918431154px" fill="#000000" text-anchor="start" style="white-space: pre;" direction="ltr">Distributed</text><text x="0" y="18.60450436059737" font-family="Helvetica, Segoe UI Emoji" font-size="8.718256918431154px" fill="#000000" text-anchor="start" style="white-space: pre;" direction="ltr">In-Memory </text><text x="0" y="28.906756540896055" font-family="Helvetica, Segoe UI Emoji" font-size="8.718256918431154px" fill="#000000" text-anchor="start" style="white-space: pre;" direction="ltr">cache</text></g><g stroke-linecap="round" transform="translate(504.32958315372736 254.69402687101183) rotate(0 122.93954565787311 71.56962868514529)"><path d="M-0.07 0.17 C88.16 -2.09, 174.11 -0.81, 245.18 0.38 M0.38 0.04 C57.02 -1.61, 114.35 -1.43, 246.56 0.36 M244.52 -1.7 C244.69 42.65, 246.37 90.06, 246.24 143.59 M246.27 -0.97 C244.2 36.17, 245.69 71.64, 245.26 142.5 M245.86 142.5 C170.36 141.3, 92.7 142.39, -1.1 141.76 M246.02 143.22 C187.08 142.51, 128.93 142.3, -0.81 143.77 M0.18 142.76 C-0.51 95.6, -2.39 47.07, 0.68 -1.18 M-0.29 143.44 C-0.43 114.86, 0.3 85.89, 0.21 -0.1" stroke="#000000" stroke-width="1" fill="none"></path></g><g transform="translate(596.9825558353875 372.28006382641524) rotate(0 26 9)"><text x="0" y="14" font-family="Helvetica, Segoe UI Emoji" font-size="16px" fill="#000000" text-anchor="start" style="white-space: pre;" direction="ltr">Cluster</text></g><g transform="translate(515.5966591637568 357.3500415314429) rotate(0 23.468709186739943 7.543513667166508)"><text x="0" y="12.087027334332818" font-family="Helvetica, Segoe UI Emoji" font-size="13.410690963851392px" fill="#000000" text-anchor="start" style="white-space: pre;" direction="ltr">Primary</text></g><g transform="translate(598.955729818106 351.7371080475523) rotate(0 23 7.5)"><text x="0" y="12" font-family="Helvetica, Segoe UI Emoji" font-size="13.410690963851392px" fill="#000000" text-anchor="start" style="white-space: pre;" direction="ltr">Replica</text></g><g transform="translate(687.225078001861 353.90256221701475) rotate(0 23 7.5)"><text x="0" y="12" font-family="Helvetica, Segoe UI Emoji" font-size="13.410690963851392px" fill="#000000" text-anchor="start" style="white-space: pre;" direction="ltr">Replica</text></g><g stroke-linecap="round" transform="translate(628.6098649935268 181.4442738256189) rotate(0 27.999999999999943 19)"><path d="M0 0 C0 0, 0 0, 0 0 M0 0 C0 0, 0 0, 0 0 M-0.32 5.7 C0.68 4.45, 2.18 3.3, 5.56 -0.16 M-0.59 6.06 C1.26 4.85, 2.59 3.14, 4.86 0.21 M-0.38 11.54 C3.16 9.01, 6.99 7.39, 11.28 0.94 M-0.41 12.25 C4.13 7.66, 8.18 1.88, 10.3 0.07 M-1.95 18.96 C5.18 15.59, 7.41 9.19, 16.31 0.4 M0.17 19.01 C4.57 13.28, 10.76 6.41, 15.8 -0.09 M1.55 25.68 C5.19 15.93, 10.91 9.5, 21.75 -0.81 M-0.09 23.55 C7.36 14.54, 15.09 6.03, 20.81 -0.48 M-0.18 29.32 C7.8 21.81, 10.35 16.38, 24.98 -1.6 M-0.45 30.91 C7.8 21.86, 13.46 14.91, 26.18 0.62 M-0.19 36.74 C8.41 26.19, 17.7 17.27, 30.02 -1.8 M0.14 36.39 C8.74 25.82, 18.73 14.72, 31.13 -1.04 M2.61 38.84 C11.22 27.51, 23.36 16.23, 35.42 -0.85 M2.34 40.1 C10.01 30.85, 16.77 23.47, 37.46 0.88 M8.48 38.16 C18.34 28.87, 25.71 20.08, 44.51 -0.9 M8.02 40.01 C21.32 25.35, 33.66 9.5, 42.24 -0.21 M11.24 38.84 C23.87 26.42, 37.95 12.07, 49.14 -1.71 M13.15 39.43 C21.17 28.93, 30.68 18.47, 48.09 0.7 M17.14 38.35 C28.43 29.03, 35.57 19.29, 51.97 0.25 M19.08 40.22 C29.02 27.57, 41.12 14.5, 53.94 0.65 M21.95 39.5 C34.15 27.26, 47.81 15.09, 57.51 1.67 M24.25 40.33 C36.57 24.96, 50.12 8.91, 56.6 0.07 M29.2 39.43 C34.04 32.46, 43.04 24.81, 59.12 9.07 M28.87 40.28 C39.56 26.86, 51.9 14.01, 56.24 6.96 M33.98 38.67 C43.89 28.57, 53.29 17.54, 57.84 14.5 M33.21 39.68 C41.79 32.15, 48.03 22.56, 57.73 12.08 M41.15 38.04 C41.75 34.72, 48.06 30.57, 56.32 19.9 M40.33 39.7 C45.61 32.6, 52.58 24.41, 57.07 18.83 M45.08 39.76 C46 36.25, 49.77 34.83, 56.36 26.28 M44.36 39.63 C48 35.76, 51.73 32.66, 57.35 25.9 M51.23 40.04 C52.29 38.47, 53.75 36.61, 57.64 31.23 M50.75 39.45 C52.58 36.61, 54.37 34.72, 58 31.8" stroke="#228be6" stroke-width="0.5" fill="none"></path><path d="M-1.79 -1.64 C16.45 -0.23, 36.56 -1.31, 56.48 -0.96 M-0.64 0.93 C20.7 0.76, 43.57 -0.53, 56.74 0.82 M54.54 -0.08 C57.07 7.01, 54.83 17.62, 55.7 38.89 M55.79 -0.66 C56.66 14.02, 55.61 29.66, 55.37 37.36 M54.59 36.13 C38.68 39.93, 25.21 37.47, -1.19 38.23 M56.98 37.62 C40.12 37.13, 25.17 37.76, 0.37 38.01 M-0.45 38.18 C1.13 26.78, 0.33 19.03, 0.44 1.34 M-0.4 38.28 C0.38 23.96, 0.51 11.1, -0.54 0.98" stroke="#000000" stroke-width="1" fill="none"></path></g><g transform="translate(633.6098649935268 191.4442738256189) rotate(0 22.999999999999943 9)"><text x="23" y="14" font-family="Helvetica, Segoe UI Emoji" font-size="16px" fill="#000000" text-anchor="middle" style="white-space: pre;" direction="ltr">LB</text></g><g stroke-linecap="round"><g transform="translate(624.7850776480111 218.70461161694402) rotate(0 -35.85282825711755 26.001371729197672)"><path d="M0.95 -0.76 C-11.08 7.95, -60.52 42.53, -72.66 51.37 M-0.01 1.45 C-11.61 10.42, -58.24 44.63, -70.35 52.76" stroke="#000000" stroke-width="1" fill="none"></path></g><g transform="translate(624.7850776480111 218.70461161694402) rotate(0 -35.85282825711755 26.001371729197672)"><path d="M-54.53 26.82 C-58.32 34.63, -61.25 39.57, -72.22 50.95 M-53.85 28.22 C-59.94 38.01, -66.73 47.86, -70.73 52.67" stroke="#000000" stroke-width="1" fill="none"></path></g><g transform="translate(624.7850776480111 218.70461161694402) rotate(0 -35.85282825711755 26.001371729197672)"><path d="M-42.68 43.58 C-49.41 47.15, -55.4 47.76, -72.22 50.95 M-42 44.97 C-52.63 48.31, -63.95 51.76, -70.73 52.67" stroke="#000000" stroke-width="1" fill="none"></path></g></g><g stroke-linecap="round"><g transform="translate(658.3802130555932 221.11536004813388) rotate(0 -11.054983245681626 25.907985402572876)"><path d="M0.36 0.08 C-3.39 9.04, -18.03 44.14, -21.66 52.74 M-0.91 -0.93 C-4.87 7.78, -18.97 42.08, -22.47 51.04" stroke="#000000" stroke-width="1" fill="none"></path></g><g transform="translate(658.3802130555932 221.11536004813388) rotate(0 -11.054983245681626 25.907985402572876)"><path d="M-21.38 23.31 C-20.77 34.17, -22.91 45.21, -23.27 51.6 M-22.32 22.33 C-21.13 32.49, -22.64 41.31, -22.57 50.34" stroke="#000000" stroke-width="1" fill="none"></path></g><g transform="translate(658.3802130555932 221.11536004813388) rotate(0 -11.054983245681626 25.907985402572876)"><path d="M-3.5 30.51 C-9.44 38.76, -18.2 47.14, -23.27 51.6 M-4.43 29.54 C-9.07 37.4, -16.47 43.84, -22.57 50.34" stroke="#000000" stroke-width="1" fill="none"></path></g></g><g stroke-linecap="round"><g transform="translate(664.0767131300383 223.37163938602407) rotate(0 24.753462844615512 26.79217813459809)"><path d="M-0.92 0.23 C7.27 9.34, 39.93 45.42, 48.08 54.28 M0.8 -0.69 C9.47 8.11, 42.15 43.37, 50.43 52.61" stroke="#000000" stroke-width="1" fill="none"></path></g><g transform="translate(664.0767131300383 223.37163938602407) rotate(0 24.753462844615512 26.79217813459809)"><path d="M24.22 37.57 C30.89 40.58, 35.08 46.03, 49.45 50.94 M23.23 39.52 C29.22 41.19, 34.76 43.81, 50.93 52.29" stroke="#000000" stroke-width="1" fill="none"></path></g><g transform="translate(664.0767131300383 223.37163938602407) rotate(0 24.753462844615512 26.79217813459809)"><path d="M39.36 23.72 C42.77 29.56, 43.74 37.96, 49.45 50.94 M38.37 25.67 C41.11 30.4, 43.39 35.99, 50.93 52.29" stroke="#000000" stroke-width="1" fill="none"></path></g></g><g transform="translate(701.4804816955698 222.120669001843) rotate(0 16.5 9)"><text x="0" y="14" font-family="Helvetica, Segoe UI Emoji" font-size="16px" fill="#000000" text-anchor="start" style="white-space: pre;" direction="ltr">read</text></g><g transform="translate(556.612253960137 217.77246971399973) rotate(0 17.5 9)"><text x="0" y="14" font-family="Helvetica, Segoe UI Emoji" font-size="16px" fill="#000000" text-anchor="start" style="white-space: pre;" direction="ltr">write</text></g><g stroke-linecap="round" transform="translate(430.44997457018934 57.7540993589364) rotate(0 57.91001889551012 40.60886567902412)"><path d="M0 0 C0 0, 0 0, 0 0 M0 0 C0 0, 0 0, 0 0 M-0.57 6.47 C1.37 4.05, 2.41 2.58, 4.2 0.36 M-0.5 6.18 C1.11 4.93, 2.29 3.38, 4.9 0.6 M0.13 11.44 C3.87 9.22, 7.12 4.8, 9.26 -0.73 M0.45 12.42 C3.41 8.73, 6.4 4.67, 10.79 0.72 M0.15 16.55 C1.51 15.52, 8.37 12.07, 13.87 1.41 M0.36 19.31 C3.84 15.71, 6.47 10.86, 14.9 -0.55 M-0.13 23.17 C6.51 19.64, 11.35 12.38, 19.83 0.51 M-0.73 23.1 C5.44 17.21, 10.44 11.76, 21.32 -1.02 M-1.1 31.09 C5.95 25.79, 10.68 18.83, 26.5 1.74 M0.85 31.44 C5.6 24.68, 10.24 18.51, 25.87 0.11 M-0.87 35.17 C12.17 23.39, 22.87 12.67, 31.52 1.63 M0.74 36.81 C7.53 28.87, 15.2 20.88, 31.54 -0.92 M1.82 44.44 C10.43 31.22, 20.81 19.16, 36.26 -1.14 M1.13 42.32 C9.32 31.29, 19.44 20.41, 37.79 -0.64 M0.6 49.31 C14.18 33.82, 25.26 18.14, 42.09 1.24 M-0.65 49.56 C13.94 32.12, 30.12 14.33, 42.25 -0.97 M1.04 53.36 C18.06 33.59, 33.56 14.64, 48.04 0.77 M0.94 54.75 C9.76 43.9, 19.25 33.31, 48.04 0.39 M-1.52 60.33 C13.05 49.14, 24.74 33.05, 51.16 0.59 M0.85 60.3 C21.66 37.62, 41.58 14.33, 53.45 -0.61 M1.52 65.86 C21.01 46.21, 39.75 21.37, 56.19 1.99 M0.63 67.03 C20.73 42.28, 43.58 14.46, 57.25 1.14 M1.14 72.75 C22.81 46.87, 46.13 21.95, 63.86 -0.58 M0.86 73.95 C15.85 56.19, 30.06 39.99, 64.4 -0.55 M-0.33 78.2 C17.96 57.78, 37.31 36.35, 68.59 -0.49 M-0.24 79.98 C12.81 63.4, 26.98 47.94, 69.31 0.29 M0.41 83.3 C22.75 61.95, 39.46 40.85, 74.79 0.01 M2.22 81.95 C17.17 65.54, 32.81 47.59, 73.59 -0.71 M6.69 83.08 C26.37 61.1, 44.76 43.19, 78.6 0.85 M6.41 83.1 C32.89 56.09, 56.52 28.37, 79.33 -0.73 M14.23 81.96 C32.44 59.99, 49.59 39.57, 84.09 -0.89 M13.63 83.16 C40.33 52.45, 65.23 22.82, 84.79 -0.29 M16.75 83.79 C43.91 52.07, 73.57 17.96, 89.08 0.02 M17.39 82.74 C42.51 54.61, 66.87 27.15, 89.7 0.27 M22.94 82.54 C47.39 54.38, 73.08 25.67, 97.35 -0.02 M23.93 82.6 C50.7 53.31, 76.38 23.4, 94.99 0.27 M30.2 81.36 C57.14 50.33, 84.96 16.89, 100.4 1.52 M29.43 83.21 C46.66 61.23, 65.83 41.36, 100.05 0.22 M32.9 83.55 C54.65 59.09, 75.21 33.6, 105.7 0.37 M33.76 82.19 C62.31 50.89, 90.31 18.24, 106.46 -0.73 M40.13 83.55 C58.34 58.31, 80.38 37.1, 110.44 0.37 M39.77 83.84 C65.42 52.56, 93.39 20.35, 111.26 0.8 M43.97 81.99 C72.45 51.84, 98.11 22.27, 117.11 1.29 M44.99 82.61 C63.08 60.26, 83.35 37.77, 116.03 0.54 M49.18 84.62 C77.1 53.23, 103.75 22.16, 116.65 4.85 M48.92 82.67 C69.96 60.2, 88.66 38.58, 115.54 7.23 M52.87 82.13 C81.01 57.22, 104.4 28.52, 116.5 12.08 M54.1 84.06 C75.74 59.4, 97.96 33.23, 117.28 12.44 M61.46 81.32 C80.7 59.84, 102.97 31.75, 117.22 17.48 M60.64 82.52 C74.28 67.6, 89.03 51.19, 115.6 19.2 M63.78 84.46 C79.09 67.44, 93.7 51.63, 117.33 22.67 M64.77 83.21 C86.97 58.54, 105.8 35.79, 116.05 24.22 M70.59 84.92 C81.74 71.71, 91.41 57.99, 115.09 31.47 M71.92 82.95 C88.45 63.48, 104.62 43.91, 116.65 31.36 M76.41 82.25 C88.08 70.33, 98.33 58.25, 116.07 37.57 M75.98 83.74 C87.4 70.47, 100.72 55.74, 116.95 37.93 M79.69 81.16 C92.52 71.62, 100.65 62.11, 118.15 43.83 M81.03 82.26 C92.19 71.42, 101.74 58.65, 116.57 42.38 M88.62 82.51 C97.33 72.64, 108.04 59.36, 116.63 49.53 M86.62 83.35 C97.97 71.38, 109.06 57.52, 115.77 50.12 M93.37 82.31 C101.32 71.6, 109.57 63.01, 115.76 54.07 M91.47 83.52 C100.3 74.06, 106.7 66.47, 116.5 55.7 M95.79 82.75 C105.12 74.58, 112.59 64.37, 114.49 60.06 M96.8 82.46 C103.02 77.72, 107.57 71.23, 115.64 60.37 M101.74 83.13 C108.87 75.78, 113.8 70.12, 114.12 68.96 M101.99 82.53 C107.68 77.51, 111.45 74.86, 116.14 68.27 M107.17 83.04 C111.36 79.86, 112 77.7, 115.67 72.75 M107.9 82.58 C110.35 79.98, 112.55 77.51, 115.85 73.93 M113.31 82.41 C114.6 81.58, 115.02 81.34, 115.91 79.72 M113.34 82.6 C114.47 81.69, 115.47 80.53, 116.22 79.72" stroke="#40c057" stroke-width="0.5" fill="none"></path><path d="M-0.9 -1.62 C29.15 -0.33, 60.22 1.87, 115.2 -0.96 M0.25 -0.04 C32.3 1.33, 65.73 1.07, 116.05 0.03 M114.63 1.44 C116.91 26.49, 117.98 52.27, 116.75 79.35 M115.12 0.19 C115.46 18.39, 115.26 35.33, 116.79 81.27 M115.19 81.37 C89.79 80.58, 63.18 79.65, -0.94 82.09 M114.84 81.72 C75.81 81.79, 36.84 81.88, 0.92 80.59 M-1.4 80.25 C1.28 63.1, -1.85 46.69, 1.71 -0.81 M0.34 80.63 C0.49 58.09, 0.12 37.46, 0.21 0.55" stroke="#000000" stroke-width="1" fill="none"></path></g><g stroke-linecap="round" transform="translate(440.44997457018934 67.7540993589364) rotate(0 57.91001889551012 40.60886567902412)"><path d="M0 0 C0 0, 0 0, 0 0 M0 0 C0 0, 0 0, 0 0 M-0.66 6.51 C1.11 3.32, 4.3 2.32, 5.54 -0.34 M-0.36 6.59 C2.01 4.58, 3.87 2.22, 4.86 0.08 M-0.81 11.73 C1.74 10.84, 5.16 8.56, 9.4 -1.18 M-0.63 11.25 C2.85 7.87, 6.35 3.63, 10.44 0.01 M-1.75 17.33 C3.84 14.8, 8.45 9.82, 17.55 0.57 M0.11 19.29 C6.87 11.72, 12.3 4.18, 16.22 -0.05 M0.1 23.47 C4.36 18.63, 11.23 11.43, 22.58 -0.44 M0.27 25.07 C8.49 15.1, 17.16 6.05, 22.24 -0.42 M0.48 32.17 C7.79 24.74, 11.21 19.13, 24.57 -0.32 M-0.77 31.47 C5.98 23.25, 11.56 16.98, 25.55 1.2 M1.52 37.6 C6.86 30.36, 13.63 20.53, 31.71 -0.54 M0.2 36.35 C12.09 22.65, 23.49 10.59, 31.07 -0.37 M-1.53 43.29 C6.66 34.05, 14.04 23.37, 35.69 0.79 M-0.47 43.19 C12.75 28.43, 24.86 14.34, 37.74 0.79 M-1.22 47.38 C13.14 34.32, 29.03 18.41, 42.01 -2.13 M0.33 49.76 C13.2 33.43, 28.76 16.27, 43.31 0.16 M-0.29 56.33 C10.7 42.46, 25.14 28.03, 45.67 -1.72 M0.45 55.44 C17.9 31.98, 37.61 11.09, 46.58 -0.66 M0 61.95 C20.47 37.11, 41.31 13.9, 53.47 -0.09 M0.82 61.68 C16.36 44.77, 30.82 27.22, 54.14 0.45 M1.55 67.15 C14.24 48.31, 32 30.64, 59.75 0.01 M-0.49 67.24 C16.63 48.51, 31.59 30.71, 58.64 0.73 M0.42 71.17 C20.97 51.97, 41.02 27.15, 64.62 0.18 M-0.76 72.98 C19.84 49.53, 40.46 26.83, 63.5 -1.03 M1.83 78.86 C17.74 60.87, 34.01 41.71, 69.71 -0.65 M-1.05 78.58 C22.76 54.01, 46.22 26.65, 69.22 0.08 M3.77 84.14 C17.48 66.7, 31.94 48.28, 72.44 -1.2 M1.85 83.53 C21.6 61.77, 39.97 38.28, 74.07 -0.49 M6.1 82.03 C28.77 56.69, 50.17 33.76, 77.78 -0.83 M7.03 82.67 C27.93 58.29, 49.63 33.19, 80.39 -0.21 M12.87 82.18 C35.37 55.66, 58.43 30.35, 84.46 1.4 M12.28 83.17 C34.94 57.67, 57.9 31.18, 85.29 -0.95 M15.93 84.81 C41.2 53.58, 68.1 23.17, 88.75 -0.17 M18.23 84.04 C45.35 51.8, 71.79 21.52, 90.95 -0.52 M21.94 81.47 C47.29 55.77, 69.45 28.9, 94.69 -0.91 M23.8 82.33 C46.53 55.27, 71.6 27.66, 95.34 -0.15 M28.07 84.08 C48.04 60.03, 65.19 39.77, 101.85 -0.8 M28.47 83.71 C51.58 55.9, 74.47 30.33, 100.46 0.02 M32.26 81.88 C60.11 51.86, 87.75 19.04, 107.62 0.49 M34.98 82.9 C59.29 52.71, 85.06 24.66, 107.14 -0.59 M41 82.46 C62.82 58.11, 84.79 32.49, 110.86 0.65 M39.67 82.2 C53.61 67.16, 68.23 49.79, 111.23 -0.46 M43.56 80.77 C67.47 55.87, 95.21 26.22, 117.61 0.47 M45.12 82 C65.34 58.87, 85.85 36.32, 115.74 1.25 M51.74 84.08 C67.55 59.05, 91.05 37.06, 114.12 7.84 M50.51 83.26 C65.16 65.33, 82 48.5, 116.42 6.23 M53.46 81.77 C76.95 58.84, 96.81 35.22, 116.98 13.21 M55.63 82.76 C66.91 69.59, 79.22 53.02, 116.37 11.93 M59.8 82.55 C78.16 65.32, 92.53 46.59, 115.7 17.63 M60.44 83.88 C78.3 61.78, 97.29 39.36, 117.14 19.18 M64.03 83.73 C82.48 64.15, 100.4 43.19, 115.59 24.5 M64.63 83.31 C82 64.25, 98.28 47.08, 116.07 25.38 M71.19 80.98 C86.05 65.18, 104.13 44.64, 117.46 32.59 M71.64 82.32 C86.06 64.81, 103.28 45.74, 116.55 31.01 M77.87 85.28 C85.04 72.61, 96.83 61.93, 115.28 37.73 M75.01 83.28 C88.18 68.92, 101.45 54.32, 116.11 36.87 M82.41 83.99 C94.29 68.64, 106.24 53.53, 115.15 42.11 M81.04 82.09 C91.28 73.67, 98.64 62.81, 115.95 42.85 M84.73 81.79 C96.96 70.82, 108.36 57.99, 114.37 47.5 M87.09 82.79 C92.91 75.65, 101.34 66.86, 116.48 48.65 M92.48 81.7 C97.32 78.32, 100.51 72.71, 115.02 53.03 M92.32 81.95 C100.77 73.68, 108.93 63.53, 117.4 55.06 M96.87 82.11 C103.84 77.43, 109.6 67.23, 115.72 60.18 M97.92 83.23 C101.18 77.87, 106.23 72.11, 115.97 60.45 M102.89 81.73 C106.06 78.73, 111.19 71.34, 117.19 66.5 M101.91 81.89 C105.63 78.68, 109.92 74.8, 115.06 68.03 M108.64 84.12 C109.25 80.23, 112.78 78.69, 117.01 74.36 M107.52 83.22 C109.65 80.43, 112.59 78.78, 116.63 72.84 M113.56 82.47 C114.59 81.77, 115.5 80.59, 115.77 79.59 M113.43 82.87 C114.52 81.62, 115.51 80.62, 116.08 79.65" stroke="#40c057" stroke-width="0.5" fill="none"></path><path d="M0.28 -0.63 C35.54 -1.62, 69.98 -2.78, 114.08 -0.94 M-0.18 -0.98 C40.31 -0.16, 80.4 0.84, 116.68 0.92 M116.79 -1.4 C114.11 20.45, 113.84 36.62, 115.06 82.93 M115.08 0.34 C115.03 21.55, 114.74 42.23, 116.58 81.43 M114.87 81.93 C76.43 78.32, 33.55 80.55, -1.8 79.37 M114.96 80.49 C74.03 82.68, 32.66 81.58, 0.26 81.79 M-0.12 80.44 C0.34 58.76, -1.49 34.72, -1.1 -1.97 M-0.19 80.62 C-0.21 56.91, 0.56 32.09, 0.26 -0.22" stroke="#000000" stroke-width="1" fill="none"></path></g><g stroke-linecap="round" transform="translate(450.44997457018934 77.7540993589364) rotate(0 57.91001889551012 40.60886567902412)"><path d="M0 0 C0 0, 0 0, 0 0 M0 0 C0 0, 0 0, 0 0 M-0.15 5.64 C0.18 5.49, 2.69 4.37, 4.29 0.8 M-0.07 6.75 C1.12 5.55, 1.96 3.85, 4.7 0.01 M-0.18 11.31 C3.75 9.99, 6.27 5.73, 9.49 0.43 M-0.66 11.26 C2.61 8.33, 5.01 5.81, 10.68 -0.79 M-1.23 19.05 C3.52 16.43, 5.85 12.22, 15.87 1.78 M0.72 19.4 C3.19 15.17, 5.65 11.5, 15.24 0.14 M-0.34 22.38 C8.86 15.01, 15.71 8.73, 20.89 1.67 M1.26 24.01 C5.46 19.02, 10.57 13.98, 20.91 -0.88 M1.69 32.39 C7.59 22.29, 15.29 13.31, 25.63 -1.1 M1 30.28 C6.47 22.27, 13.89 14.49, 27.16 -0.61 M0.46 37.27 C10.88 25.59, 18.73 13.63, 31.46 1.28 M-0.78 37.52 C10.18 24.26, 22.76 10.6, 31.62 -0.93 M0.91 41.32 C14.1 25.81, 25.82 11.21, 37.41 0.81 M0.8 42.71 C7.46 34.29, 14.79 26.18, 37.41 0.43 M-1.66 48.29 C10.51 39.78, 19.83 26.42, 40.53 0.62 M0.72 48.26 C17.44 30.28, 33.31 11.66, 42.82 -0.58 M2.04 53.07 C17.73 37.62, 32.79 17.01, 45.56 2.02 M1.15 54.24 C17.06 34.46, 35.6 11.59, 46.62 1.18 M1 60.71 C19 39.06, 38.63 18.38, 53.23 -0.54 M0.73 61.91 C13.24 47, 25.05 33.56, 53.77 -0.51 M-0.46 66.16 C14.85 49.19, 31.28 31.11, 57.96 -0.45 M-0.37 67.94 C10.65 53.78, 22.69 40.77, 58.68 0.33 M-1.69 73.53 C18.45 54.7, 32.98 36.13, 64.16 0.05 M0.12 72.17 C13.22 57.79, 27.03 41.94, 62.96 -0.67 M-0.66 79.34 C18.2 58.3, 35.79 41.31, 67.97 0.89 M-0.94 79.37 C24.42 53.59, 46.94 27.14, 68.7 -0.69 M3.6 82 C21.81 60.03, 38.96 39.61, 73.46 -0.86 M3 83.2 C29.7 52.49, 54.6 22.85, 74.16 -0.25 M6.12 83.83 C33.28 52.1, 62.94 18, 78.45 0.06 M6.76 82.77 C31.88 54.65, 56.24 27.19, 79.07 0.31 M12.31 82.58 C36.76 54.41, 62.45 25.7, 86.72 0.01 M13.3 82.63 C40.07 53.34, 65.75 23.43, 84.36 0.3 M19.57 81.4 C46.51 50.36, 74.33 16.93, 89.77 1.56 M18.8 83.25 C36.03 61.26, 55.2 41.39, 89.42 0.25 M22.26 83.58 C44.02 59.12, 64.58 33.64, 95.07 0.4 M23.13 82.22 C51.68 50.92, 79.68 18.28, 95.83 -0.69 M29.5 83.59 C47.71 58.35, 69.75 37.13, 99.81 0.4 M29.14 83.87 C54.79 52.6, 82.76 20.38, 100.63 0.83 M33.34 82.02 C62.07 51.6, 87.98 21.74, 107.14 0.57 M34.36 82.65 C52.62 60.08, 73.08 37.38, 106.06 -0.18 M38.55 84.66 C68.81 50.55, 97.77 16.81, 111.93 -1.9 M38.29 82.7 C61.07 58.24, 81.48 34.66, 110.82 0.48 M42.9 81.41 C75.05 52.05, 102.36 18.83, 116.37 0.04 M44.12 83.34 C69.27 54.71, 94.91 24.59, 117.15 0.4 M50.83 81.36 C74.02 55.18, 100.28 22.5, 117.08 5.44 M50.01 82.56 C66.28 64.57, 83.63 45.17, 115.47 7.16 M53.15 84.49 C71.28 64.2, 88.79 45.04, 117.2 10.63 M54.14 83.24 C80.63 53.66, 103.66 26.08, 115.92 12.18 M59.96 84.95 C73.71 68.92, 85.86 52.34, 114.96 19.43 M61.29 82.98 C81.75 58.87, 101.95 34.67, 116.52 19.32 M65.78 82.29 C80.31 67.05, 93.51 51.57, 116.59 24.77 M65.35 83.78 C80.12 66.78, 96.75 48.23, 117.47 25.13 M69.06 81.2 C84.86 68.33, 95.86 55.51, 118.02 31.79 M70.4 82.3 C84.63 67.72, 97.37 51.28, 116.44 30.34 M77.99 82.55 C90.25 68.51, 104.49 51.17, 116.5 37.49 M75.99 83.38 C91.36 66.87, 106.49 48.38, 115.64 38.08 M82.74 82.35 C94.27 67.6, 105.99 55, 115.62 42.03 M80.84 83.55 C92.71 70.68, 102.14 59.62, 116.36 43.66 M85.16 82.78 C98.63 69.95, 110.23 54.99, 114.36 48.02 M86.17 82.49 C95.27 74.33, 102.75 64.47, 115.5 48.33 M91.11 83.17 C102.41 71.06, 111.47 60.64, 114.64 56.16 M91.36 82.56 C100.27 73.79, 107.29 67.4, 116.67 55.47 M96.15 83 C104.21 76.33, 106.74 71.23, 115.13 60.38 M97.27 82.29 C102.66 76.38, 107.66 70.71, 115.4 62.18 M101.81 80.91 C108.26 76.77, 110.35 75.57, 114.79 67.45 M101.96 81.88 C107.61 77.31, 112.6 71.51, 116.32 67.45 M108.82 82.22 C110.08 80.53, 113.68 78.03, 117.4 72.69 M107.92 82.88 C110.47 80.41, 114.16 76.75, 115.88 73.75 M113.21 82.9 C114.3 82.05, 114.91 80.77, 115.97 80.09 M113.61 82.8 C114.45 81.72, 115.55 80.56, 116.03 79.77" stroke="#40c057" stroke-width="0.5" fill="none"></path><path d="M-0.63 0.15 C24.85 -0.97, 49.12 -1.9, 114.88 0.87 M-0.98 0.5 C39.91 0.99, 80.87 1.07, 116.74 -0.63 M114.42 -0.96 C116.87 15.66, 113.75 33.02, 117.53 80.4 M116.16 -0.58 C116.3 21.39, 115.93 45.27, 116.03 81.77 M116.53 82.99 C71.76 80.72, 31.93 78.87, -1.84 82.37 M115.09 80.83 C79.59 79.88, 41.67 80.48, 0.57 81.04 M-0.78 81.39 C-0.06 56.82, -1.14 34.62, -1.97 0 M-0.6 80.67 C-0.13 60.39, -0.58 39.37, -0.22 0.6" stroke="#000000" stroke-width="1" fill="none"></path></g><g transform="translate(460.22746527892076 87.26431771328134) rotate(0 40.5 24)"><text x="0" y="13" font-family="Helvetica, Segoe UI Emoji" font-size="14.503838300974762px" fill="#000000" text-anchor="start" style="white-space: pre;" direction="ltr">Html Parser </text><text x="0" y="29" font-family="Helvetica, Segoe UI Emoji" font-size="14.503838300974762px" fill="#000000" text-anchor="start" style="white-space: pre;" direction="ltr">   Service</text><text x="0" y="45" font-family="Helvetica, Segoe UI Emoji" font-size="14.503838300974762px" fill="#000000" text-anchor="start" style="white-space: pre;" direction="ltr">  (Worker)</text></g><g stroke-linecap="round"><g transform="translate(365.8443648878837 105.09064086317267) rotate(0 30.233369348745953 -0.9719770118529141)"><path d="M-0.76 0.97 C9.59 0.38, 51.07 -2.5, 61.23 -2.91 M1.04 0.43 C11.3 -0.04, 49.99 -0.95, 60.22 -1.58" stroke="#000000" stroke-width="1" fill="none"></path></g><g transform="translate(365.8443648878837 105.09064086317267) rotate(0 30.233369348745953 -0.9719770118529141)"><path d="M34.08 9.63 C38.05 5.46, 46.68 4.35, 59.99 -0.41 M32.97 10.35 C39.96 6.41, 47.14 3.96, 59.31 -1.31" stroke="#000000" stroke-width="1" fill="none"></path></g><g transform="translate(365.8443648878837 105.09064086317267) rotate(0 30.233369348745953 -0.9719770118529141)"><path d="M33.26 -10.87 C37.52 -10.4, 46.33 -6.86, 59.99 -0.41 M32.14 -10.15 C39.33 -8.67, 46.73 -5.69, 59.31 -1.31" stroke="#000000" stroke-width="1" fill="none"></path></g></g><g stroke-linecap="round" transform="translate(729.4693049780144 59.94330598666511) rotate(0 47.59537007058918 31.352129554094972)"><path d="M0 0 C0 0, 0 0, 0 0 M0 0 C0 0, 0 0, 0 0 M-0.39 5.77 C0.49 5.31, 1.93 3.58, 4.45 -0.03 M-0.21 6.52 C0.99 4.53, 2.76 3.24, 5.29 0.23 M0.74 11.7 C4.3 8.66, 5.99 3.45, 11.01 0.92 M0.71 12.02 C3.33 9.49, 5.3 6.35, 11.05 -0.19 M-0.17 16.56 C3.61 12.29, 9.63 7.28, 14.74 1.64 M0.34 19.29 C5.4 12.26, 9.64 6.88, 15.38 1.17 M-0.38 25.96 C5.44 18.86, 12.91 11.33, 23.03 -0.5 M-0.28 24.63 C6.64 15.76, 15.1 7.64, 21.5 -0.12 M-1.65 29.28 C4.63 21.36, 14.24 16.72, 26.17 1.62 M-0.68 30.84 C7.41 21.86, 15.1 12.91, 26.06 -0.25 M0.43 38.87 C13.26 20.66, 23.97 9.79, 32.3 -2 M-0.48 37.64 C11.61 23.53, 22.68 11.84, 32.8 0.3 M1.61 41.25 C7.39 33.38, 17.98 21.97, 37.3 0.83 M-0.71 43.41 C12.39 27.69, 26.11 12.65, 35.91 0.22 M-1.99 48.34 C10.29 38.86, 20.95 25.52, 41.02 -0.58 M0.7 48.98 C10.9 36.77, 20.74 25.51, 41.8 0.86 M1.72 53.22 C16.32 35.38, 33.66 17.06, 49.01 -0.73 M0.02 53.82 C14.45 38.6, 28.14 22.29, 48.32 -0.25 M-1.44 61.14 C18.51 35.36, 42.39 12.81, 52.8 1.01 M0.98 61.59 C19.68 36.65, 41.22 14.52, 52.52 0.1 M2.28 66.21 C22.31 43.12, 38.69 24.7, 59.65 -0.55 M2.47 63.35 C20.35 43.18, 38.46 23.18, 57.9 0.28 M5.68 65.47 C22.71 46.95, 37.19 28.56, 64.77 -1.47 M7.2 64.09 C21.54 48.52, 38.03 30.04, 64.19 -0.67 M12.95 62.4 C27.49 44.38, 45.76 25.74, 69.1 -1.63 M13.46 64.76 C24.68 50.16, 37.42 38.13, 68.55 0.48 M17.29 64.87 C30.73 49.31, 46.21 32.3, 75.54 -1.76 M18.31 64.71 C28.23 51.12, 41.69 37.22, 75.34 0.62 M21.83 63.88 C39.58 44.25, 59.85 23.27, 78.72 -0.45 M23.97 64.93 C37.46 47.94, 51.18 32.65, 79.38 -0.2 M29.47 64.62 C38.93 49.07, 53.75 35.39, 85.22 0.89 M29.15 63.64 C41.21 47.96, 55.82 33.04, 85.71 -1.24 M35.04 65.4 C54.27 41.65, 70.84 22.35, 91.37 1 M34.74 63.67 C55.58 39.44, 76.04 16.64, 90.78 0.42 M39.1 64.72 C49.43 51.32, 63.45 37.19, 94.79 -1.49 M39.11 64.07 C53.27 48, 66.91 31.69, 95.64 0.09 M43.53 64.97 C54.37 51.51, 66.43 38.11, 94.19 5.25 M45.13 64.28 C56.46 49.95, 69.58 36.45, 95.13 5.3 M48.55 63.69 C59.41 55.98, 68.11 42.71, 94.17 11.41 M50.81 63.93 C59.28 53.71, 69.97 42.09, 94.22 13.46 M53.74 64.84 C62.96 55.65, 73.4 42.94, 97.03 19.32 M55.71 64.57 C68.17 48.45, 82.11 32.91, 95.31 18.14 M61.67 62.53 C68.35 53.52, 76.8 44.01, 93.82 24.52 M60.13 63.92 C74.02 49.25, 87.98 34.31, 94.77 24.62 M63.62 64.03 C74.38 55.15, 83.01 45.51, 95.86 31.43 M66.31 65.36 C74.02 54.82, 80.67 46.85, 94.03 30.08 M71.84 64.75 C78.67 53.96, 86.49 44.84, 95.85 36.62 M70.2 65.45 C77.05 58.33, 84.6 50.65, 96.07 37.37 M77.3 63.29 C82.19 59.39, 85.55 55, 96.85 44.08 M76.7 65.44 C81.09 59.55, 85.35 54.12, 95.99 42.79 M81.93 64.36 C86.47 60.86, 87.99 58.87, 95.89 48.95 M81.4 64.72 C84.91 61.26, 88.7 56.92, 96.1 48.28 M87.82 65.51 C88.41 62.29, 91.46 59.76, 94.27 56 M86.18 64.53 C88.38 61.76, 91.41 59.45, 95.21 54.99 M92.38 64.71 C93.17 63.76, 94.24 62.63, 94.9 61.53 M92.59 64.47 C93.52 63.14, 94.57 62.02, 95.11 61.4" stroke="#40c057" stroke-width="0.5" fill="none"></path><path d="M-1.74 1.95 C20.23 0.5, 42.5 -0.7, 97.07 0.94 M-0.48 -0.93 C23.92 -0.38, 50.44 -0.12, 95.49 0.45 M93.75 1.52 C96.02 17.6, 95.96 34.89, 95.96 60.74 M94.34 -0.39 C95.75 16.24, 95.73 30.99, 94.8 62.37 M97.02 61.57 C67.92 64.2, 41.87 64.04, 0.89 61.09 M94.94 62.5 C70.69 62.76, 46.75 63.03, -0.82 63.7 M0.43 62.7 C-0.68 45.78, -0.59 29.08, 0.66 -0.58 M-0.98 62.11 C0.34 38.52, 0.22 14.72, -0.09 0.25" stroke="#000000" stroke-width="1" fill="none"></path></g><g stroke-linecap="round" transform="translate(739.4693049780144 69.94330598666511) rotate(0 47.59537007058918 31.352129554094972)"><path d="M0 0 C0 0, 0 0, 0 0 M0 0 C0 0, 0 0, 0 0 M-0.81 6.69 C0.83 5.1, 2.19 3.46, 4.84 -0.07 M-0.12 6.8 C1.99 3.69, 3.67 2.04, 5.07 -0.02 M-0.22 13.26 C4.33 7.12, 7.57 5.06, 12.08 0.62 M0.72 11.53 C2.02 9.56, 5.23 6.18, 10.8 0.19 M-1.82 20.22 C4.18 11.9, 12.03 4.37, 13.69 0.25 M-1.06 18.15 C3.66 14.98, 7.59 9.92, 14.87 0.1 M1.91 24.21 C7.07 18.13, 11.27 13.42, 19.82 1.92 M0.99 23.41 C7.42 15.5, 15.21 7.35, 22.01 -0.55 M-0.5 28.99 C7.86 22.27, 14.61 13.37, 27.87 -0.65 M-0.72 30.57 C9.13 17.83, 20.94 6.7, 26.07 0.88 M1.68 38.14 C10.79 21.29, 25.19 10.03, 30.62 0.43 M-0.3 37.81 C11.09 24.7, 20.62 13.94, 32.65 -0.47 M0.34 40.54 C11.97 28.71, 23.94 16.59, 36.41 0.43 M-0.7 42.91 C9.97 31.05, 19.44 19.28, 37.37 -0.38 M-0.45 47.71 C9.6 37.5, 24.3 21.59, 43.35 -1.06 M-0.15 47.97 C11.34 33.81, 24.83 19.48, 42.68 -1.03 M1.19 55.48 C9.63 41.71, 21.59 33.2, 47.07 0.88 M-0.08 54.66 C11.33 41.6, 23.54 27.95, 48.07 -0.54 M0.64 61.05 C8.69 47.88, 23.38 34.15, 55.01 1.54 M-0.89 60.76 C15.7 41.98, 33.72 22.43, 52.81 -0.46 M3.05 65.67 C16.21 47.08, 30.15 32.04, 58.11 -0.45 M2.8 64.33 C13.1 49.9, 26.35 36.34, 58.23 0.77 M8.42 62.72 C19.01 47.08, 34.79 32.7, 65.11 -2.13 M7.75 65.28 C26.87 42.61, 44.56 22.13, 64.45 0.25 M13.96 63.17 C34.37 39.03, 54.34 17.51, 70.28 0.82 M12.93 64.37 C23.98 50.76, 37.07 36.71, 68.66 -0.82 M17.7 63.61 C32.54 47.9, 45.83 31.4, 75.66 -0.96 M17.64 64.67 C30.34 49.39, 43.66 34.3, 73.8 -0.66 M25.43 62.93 C36.51 47.26, 51.53 33.18, 78.84 -1.45 M22.97 63.83 C35.41 52.28, 46.5 37.9, 78.91 -0.42 M30.47 63.38 C39.98 51.61, 53.82 37.05, 83.18 1.67 M28.06 64.59 C41.56 50, 55.61 33.49, 85.79 0.32 M35.94 63.54 C52.22 41.52, 71.27 20.58, 89.55 0.11 M34.84 63.24 C47.2 47.66, 60.79 32.14, 89.3 0.08 M38.49 63.37 C61.02 40.02, 83.69 16.19, 94 0.63 M38.31 64.17 C55.51 45.85, 71.81 27.24, 95.44 0.7 M45.86 65.89 C59.14 47.29, 70.35 33.76, 93.43 4.4 M44.59 65.09 C61.44 44.25, 78.61 24.44, 95.63 6.11 M48 66.47 C60.85 53.2, 75.11 38.81, 96.45 14.1 M50.47 63.78 C61.76 51.51, 72.12 39.34, 96 13.04 M56.01 66.09 C65.48 53.52, 74.68 41.85, 97.22 17.79 M54.95 64.87 C64.88 54.72, 72.94 45.32, 95.71 18.3 M59.78 65.04 C68.53 56.17, 77.8 45.55, 96.39 23.88 M61.33 65.06 C69.74 53.51, 80.07 42.37, 94.5 25.29 M63.73 64 C71.35 54.5, 81.55 46.38, 94.77 30.86 M65.45 65.61 C75.06 54.74, 85.18 43.34, 94.71 31.24 M73.07 64.95 C81.55 52.57, 91.32 42.21, 96.32 36.58 M70.45 64.88 C79.36 54.92, 86.77 46.99, 94.87 35.94 M77.53 64.24 C80.83 58.86, 87.04 51.9, 95.17 43.48 M77.02 64.8 C79.98 59.27, 84.28 54.77, 95.22 42.55 M81.63 65.56 C85.47 59.66, 89.21 55.85, 97.25 48.33 M82.14 65.37 C83.93 60.67, 87.31 58.69, 95.79 48.76 M87.84 64.89 C89 61.06, 93.52 57.05, 95.75 55.17 M87.14 65.06 C88.95 62.78, 91.85 60.18, 94.88 55.24 M92.67 64.29 C93.44 63.47, 93.4 63.16, 94.82 61.42 M92.21 64.32 C93.16 63.54, 93.86 62.75, 94.83 61.42" stroke="#40c057" stroke-width="0.5" fill="none"></path><path d="M-0.61 0.74 C29.22 0.71, 53.69 -0.36, 95.7 1.84 M-0.16 -0.78 C22.15 0.5, 45.16 0.16, 94.52 -0.49 M95.44 0.6 C94.67 15.97, 96.44 34.62, 96.7 62.03 M95.57 -0.21 C95.46 20.05, 94.44 38.97, 95.43 63.3 M96.62 62.65 C71.96 65.04, 45.59 64.96, 1.05 62.31 M95.17 61.76 C66.54 63.13, 38.98 63.31, -0.44 63.36 M0.94 64.4 C0.16 41.22, -2.1 21.4, -0.48 1.68 M-0.33 63.64 C-0.39 46.24, 0.45 28.53, 0.89 -0.21" stroke="#000000" stroke-width="1" fill="none"></path></g><g stroke-linecap="round" transform="translate(749.4693049780144 79.94330598666511) rotate(0 47.59537007058918 31.352129554094972)"><path d="M0 0 C0 0, 0 0, 0 0 M0 0 C0 0, 0 0, 0 0 M0.03 5.88 C1.76 3.97, 3.44 2.86, 4.56 1.06 M0.14 6.61 C0.95 4.42, 3.23 2.81, 4.61 0.57 M1.35 12.45 C1.93 9.18, 6.59 7.89, 11.28 -0.91 M-0.38 11.41 C4.17 7.86, 7.32 3.95, 10.86 0.28 M1.66 17.24 C2.78 16.06, 4.72 9.01, 15.55 -0.65 M-0.42 18.23 C5.32 13.36, 9.16 7.84, 15.4 -0.27 M0.39 25.91 C7.04 16.89, 15.08 6.5, 23.25 0.67 M-0.4 24.29 C7.19 16.38, 14.54 7.75, 20.78 -0.05 M-1.48 30.45 C9.21 19.79, 17.73 13.1, 25.3 2.14 M0.1 29.5 C8.86 20.11, 19.23 8.31, 26.84 1.16 M1 35.66 C9.61 24.49, 23.81 9.65, 32.43 0.22 M0.68 37.87 C7.23 28.07, 16.14 19.26, 31.52 0.14 M-1.84 42.49 C11.42 29.35, 24.46 15.67, 37.06 -0.5 M0.52 43.07 C13.8 27.03, 27.19 10.95, 36.24 -0.14 M-1.33 47.32 C12.2 38.38, 20.02 24.61, 41.59 -0.24 M-1.07 48.18 C15.25 30.62, 31.46 12.12, 41.63 -1.03 M1.19 53.64 C10.02 42.61, 24.1 28.24, 48.17 -1.07 M0.37 53.98 C9.65 44.2, 18.39 33.18, 46.75 -0.73 M0.1 59.13 C18.66 40.68, 36.66 18.46, 54.87 0.07 M-0.19 60.4 C18.92 40.71, 37.22 17.87, 52.87 -0.75 M3.7 64.36 C14.73 48.43, 29.29 31.77, 57.5 -1.57 M2.37 63.79 C23 40.3, 44.49 14.83, 58.72 -0.43 M5.38 62.82 C21.28 46.32, 38.48 28.64, 61.86 0.39 M7.94 65.42 C22.03 46.63, 38.31 29.84, 64.24 0.55 M11.87 64.39 C25.58 47.28, 41.95 33.8, 69.43 -1.49 M13.06 63.5 C33.4 41.54, 53.26 18.35, 67.8 -0.31 M16.94 65.4 C39.11 39.76, 60.55 16.63, 73.69 -1.51 M18 63.68 C34.98 44.35, 52.2 25.22, 73.99 -0.83 M22.29 63.29 C35.17 49.3, 49.65 33.06, 77.83 -1.81 M23.2 64.24 C37.41 49.74, 48.79 34.91, 78.86 -0.68 M27.37 63.68 C47.99 43.75, 65.82 20.65, 86.99 -1.38 M28.58 63.66 C45.86 45.86, 61.2 28.96, 85.64 0.17 M33.57 63.32 C53.3 40.06, 74.13 18.03, 90.05 -1.04 M33.27 64.07 C54.26 39.57, 75.39 14.86, 90.03 0.9 M38.03 65.14 C56.27 47.1, 74 24.47, 95.2 0.29 M38.82 64.78 C58.04 43.68, 76.99 22.29, 95.27 0.12 M45.18 65.98 C55.74 47.59, 71.42 31.53, 93.72 6.88 M44.37 64.54 C56.77 48.87, 70.23 34.44, 95.44 5.63 M51.79 63.81 C63.72 53.22, 74.54 38.8, 96.76 11.34 M49.1 65.23 C61 50.99, 73.07 38.44, 95.71 12.13 M56.04 65.03 C70.29 46.62, 85.46 33.11, 95.2 16.45 M54.82 65.71 C63.22 55.24, 72.37 45.65, 95.72 17.47 M61.03 64.18 C69.96 55.73, 77.15 46.31, 94.63 24.19 M61.04 63.95 C71.6 51.78, 82.54 38.71, 96.05 24.2 M64.61 62.98 C74.27 53.96, 85.31 41.75, 94.96 31.4 M66.22 64.64 C73.04 57.52, 79.32 49.22, 95.34 31.8 M71.6 65.27 C75.36 59.29, 81.14 52.9, 95.43 37.1 M71.53 64.61 C76.54 57.57, 83.55 50.75, 94.79 36.39 M75.52 64.09 C81.23 59.15, 85.36 53.43, 95.67 41.73 M76.07 64.38 C83.33 55.3, 91.59 47.38, 94.74 42.55 M82.87 64.59 C85.11 60.13, 89.44 56.86, 95.27 46.84 M82.68 63.64 C84.99 59.86, 90.01 56.26, 95.7 49.5 M86.84 63.71 C89.13 62.19, 91.24 59.91, 95.45 54.48 M87 64.78 C89.61 62.71, 91.91 58.96, 95.52 54.78 M92.26 64.77 C93.01 63.13, 94.27 62.45, 95.04 61.4 M92.3 64.39 C93.16 63.48, 94.01 62.57, 95.04 61.49" stroke="#40c057" stroke-width="0.5" fill="none"></path><path d="M0.74 1.87 C35.87 -0.7, 70.37 0.81, 97.03 -1.22 M-0.78 -0.62 C30.58 -0.23, 60.38 -0.52, 94.7 -0.3 M95.79 -0.75 C94.75 22.06, 96.46 43.59, 94.52 63.02 M94.98 0.51 C95.36 15.91, 94.48 33.08, 95.79 62.28 M95.14 64 C66.56 62.83, 36.24 64.44, -0.39 62.64 M94.25 62.31 C58.88 62.96, 23.07 62.24, 0.66 63.12 M1.7 63.16 C0.11 39.2, 1.72 18.84, 1.68 -0.49 M0.94 62.42 C0.23 43.41, -0.2 23.9, -0.21 0.32" stroke="#000000" stroke-width="1" fill="none"></path></g><g transform="translate(759.7023708089964 84.61036330983279) rotate(0 31 18)"><text x="0" y="14" font-family="Helvetica, Segoe UI Emoji" font-size="16px" fill="#000000" text-anchor="start" style="white-space: pre;" direction="ltr">Validator</text><text x="0" y="32" font-family="Helvetica, Segoe UI Emoji" font-size="16px" fill="#000000" text-anchor="start" style="white-space: pre;" direction="ltr">Service</text></g><g stroke-linecap="round"><g transform="translate(744.9507567193398 145.86100773969974) rotate(0 -30.476612658918725 16.094135855597415)"><path d="M-1.15 -0.14 C-11.34 5.37, -51.3 28.02, -61.4 33.44 M0.44 -1.25 C-9.33 3.87, -49.06 25.87, -59.03 31.66" stroke="#000000" stroke-width="1" fill="none"></path></g><g transform="translate(744.9507567193398 145.86100773969974) rotate(0 -30.476612658918725 16.094135855597415)"><path d="M-39.76 7.77 C-43.8 13.37, -50.98 22.71, -59.9 32.14 M-38.55 8.04 C-45.98 14.74, -51.75 22.94, -58.15 31.62" stroke="#000000" stroke-width="1" fill="none"></path></g><g transform="translate(744.9507567193398 145.86100773969974) rotate(0 -30.476612658918725 16.094135855597415)"><path d="M-29.67 25.64 C-36.58 26.16, -46.57 30.52, -59.9 32.14 M-28.45 25.9 C-38.78 27.39, -47.52 30.33, -58.15 31.62" stroke="#000000" stroke-width="1" fill="none"></path></g></g><g stroke-linecap="round" transform="translate(614.367791708665 80.92727957060833) rotate(0 24 23.5)"><path d="M0 0 C0 0, 0 0, 0 0 M0 0 C0 0, 0 0, 0 0 M-1.06 5.8 C1.85 4.22, 3.31 2.39, 4.86 0.93 M-0.43 6.69 C0.96 4.98, 2.34 3.09, 5.11 0.45 M1.23 13.14 C5.28 6.86, 7.84 3.85, 11.16 -0.38 M0.08 12.45 C3.49 8.03, 6.09 5.06, 11.18 0.51 M0.64 19.98 C7 12.98, 9.49 4.99, 16.19 0.48 M-0.17 18.44 C4.71 11.94, 9.14 6.46, 15.12 0.76 M0.87 22.09 C4.3 20.09, 11.36 12.94, 20.45 1.2 M-0.51 23.39 C3.83 19.41, 9.44 13.52, 21.65 0.24 M0.42 31.59 C5.61 20.34, 16.6 11.81, 26.71 -0.35 M-0.5 29.6 C8.12 21.71, 16.03 12.9, 26.9 0.47 M-0.34 36.41 C8 29.29, 11.63 20.39, 33.41 0.1 M-0.07 36.06 C12.85 22.06, 25.93 6.82, 32.64 -0.6 M0.11 41.83 C10.13 30.96, 17.09 23.25, 38.49 2.18 M0.03 43.37 C12.56 28.48, 24.37 13.86, 36.71 0.09 M0.77 46.22 C16.44 32.06, 28.31 15.65, 41.69 1.85 M1.06 46.93 C10.73 36.73, 20.94 25.34, 41.71 -0.87 M7.11 47.53 C20.82 32.31, 36.36 12.86, 48.28 0.42 M5.74 46.96 C16.13 37.23, 26.27 25.56, 47.34 -0.75 M9.52 46.35 C23.72 31.98, 36.7 19.24, 48.67 4.58 M11.25 49.07 C19.43 38.61, 27.42 29.39, 50.43 2.71 M16.13 47.33 C24.08 37.54, 32.51 28.44, 52.11 8.56 M16.52 47.14 C29.15 33.28, 42.06 19.5, 51.15 9.12 M23.28 49.72 C29.78 38.1, 39.6 28.31, 49.62 14.94 M21.19 47.42 C30.6 36.27, 40.4 25.93, 50.47 15.66 M29.07 49.11 C32.73 41.35, 36.97 35.9, 51.7 21.42 M27.7 47.7 C36.23 37.72, 45.53 27.22, 50.37 21.32 M33.16 46.45 C37.7 40.63, 43.32 33.3, 51.4 26.01 M31.53 47.87 C38.28 40.3, 44.73 33.88, 51.39 27.7 M38.91 48.93 C41.41 43.04, 45.8 37.47, 49.94 32.88 M37.97 48.35 C41.32 42.31, 46.48 38.02, 50.68 34.16 M42.07 47.65 C46.27 45.46, 48.41 42.8, 51.29 38.03 M42.62 48.48 C45.44 45.96, 47.68 42.27, 51.35 38.88" stroke="#228be6" stroke-width="0.5" fill="none"></path><path d="M-0.89 -1.36 C14.8 -1.26, 29.02 1.11, 46.38 0.18 M0.72 -0.45 C13.06 -0.48, 26.76 1.21, 48.36 -0.12 M47.66 0.99 C45.86 10.75, 49.48 25.84, 46.32 48.46 M47.36 -0.97 C49.08 12.89, 47.75 26.28, 47.34 46.14 M46.63 45.8 C30.95 46.37, 18.69 46.4, 1.52 47.89 M47.86 47.89 C34.02 47.15, 21.26 47.98, -0.78 47.34 M-0.36 46.35 C0.24 29.6, -0.72 9, -2 1.82 M-0.55 46.84 C-0.35 37.41, 0.51 27.17, -0.22 0.42" stroke="#000000" stroke-width="1" fill="none"></path></g><g transform="translate(619.367791708665 95.42727957060833) rotate(0 19 9)"><text x="19" y="14" font-family="Helvetica, Segoe UI Emoji" font-size="16px" fill="#000000" text-anchor="middle" style="white-space: pre;" direction="ltr">LB</text></g><g stroke-linecap="round"><g transform="translate(565.3980523934331 109.76915962558996) rotate(0 21.344915784756893 2.8680425406319046)"><path d="M0.48 0.97 C7.87 1.92, 36.63 4.48, 43.41 5.31 M-0.72 0.43 C6.69 1.04, 35.7 2.76, 43.07 3.37" stroke="#000000" stroke-width="1" fill="none"></path></g><g transform="translate(565.3980523934331 109.76915962558996) rotate(0 21.344915784756893 2.8680425406319046)"><path d="M24.23 11.16 C27.79 6.02, 33.37 6.33, 44.76 3.19 M22.45 9.07 C29.61 7.32, 36.31 5.36, 42.48 3.93" stroke="#000000" stroke-width="1" fill="none"></path></g><g transform="translate(565.3980523934331 109.76915962558996) rotate(0 21.344915784756893 2.8680425406319046)"><path d="M25.25 -3.36 C28.53 -5.26, 33.89 -1.73, 44.76 3.19 M23.46 -5.45 C30.24 -2.55, 36.62 0.15, 42.48 3.93" stroke="#000000" stroke-width="1" fill="none"></path></g></g><g stroke-linecap="round"><g transform="translate(665.431953565788 102.6420078808469) rotate(0 32.61331852506669 0.5557809092476873)"><path d="M1.07 -0.97 C11.37 -0.6, 52.39 1.74, 62.8 2.08 M0.17 1.14 C10.76 1.17, 54.63 0.1, 65.05 0.26" stroke="#000000" stroke-width="1" fill="none"></path></g><g transform="translate(665.431953565788 102.6420078808469) rotate(0 32.61331852506669 0.5557809092476873)"><path d="M35.32 9.27 C48.71 6.23, 57.76 3.38, 64.82 0.45 M37.32 10.83 C45.97 7.01, 57.29 3.29, 64.24 0.44" stroke="#000000" stroke-width="1" fill="none"></path></g><g transform="translate(665.431953565788 102.6420078808469) rotate(0 32.61331852506669 0.5557809092476873)"><path d="M35.17 -11.25 C48.59 -6.42, 57.7 -1.39, 64.82 0.45 M37.17 -9.69 C46.01 -6.37, 57.37 -2.96, 64.24 0.44" stroke="#000000" stroke-width="1" fill="none"></path></g></g><g stroke-linecap="round"><g transform="translate(771.7827554265341 24.931287698783308) rotate(0 -0.21757016151684638 16.256261497324203)"><path d="M-0.14 0.26 C0.13 5.89, 1.1 27.99, 1.23 33.17 M-1.67 -0.65 C-1.46 4.71, 0.4 26.07, 0.66 31.53" stroke="#000000" stroke-width="1" fill="none"></path></g></g><g stroke-linecap="round"><g transform="translate(269.67476213182584 36.244226976153186) rotate(0 250.34758573468514 -4.793129403995181)"><path d="M-0.13 -1.12 C83.4 -2.53, 418.77 -7.14, 502.35 -8.63 M-1.66 0.91 C81.69 -0.85, 418.16 -8.81, 501.87 -10.5" stroke="#000000" stroke-width="1" fill="none"></path></g></g><g stroke-linecap="round"><g transform="translate(268.34472737894583 35.051782025295324) rotate(0 1.0517406786583479 25.84581376230767)"><path d="M0.09 0.64 C0.2 9.28, 0.95 43.42, 1.22 51.75 M-1.32 -0.06 C-0.89 8.24, 3.09 41.38, 3.42 50.02" stroke="#000000" stroke-width="1" fill="none"></path></g><g transform="translate(268.34472737894583 35.051782025295324) rotate(0 1.0517406786583479 25.84581376230767)"><path d="M-6.2 25.22 C-2.33 34.05, -0.42 42.59, 2.93 51.65 M-7.87 26.65 C-4.69 33.93, -1.67 39.63, 2.59 49.79" stroke="#000000" stroke-width="1" fill="none"></path></g><g transform="translate(268.34472737894583 35.051782025295324) rotate(0 1.0517406786583479 25.84581376230767)"><path d="M11.21 23.77 C9.02 33.12, 4.87 42.16, 2.93 51.65 M9.53 25.2 C8.16 32.78, 6.65 38.87, 2.59 49.79" stroke="#000000" stroke-width="1" fill="none"></path></g></g><g transform="translate(484.66341411803995 10) rotate(0 63 9)"><text x="0" y="14" font-family="Helvetica, Segoe UI Emoji" font-size="16px" fill="#000000" text-anchor="start" style="white-space: pre;" direction="ltr">Not visited before</text></g></svg>